<svg width="135" height="47" viewBox="0 0 135 47" fill="none" xmlns="http://www.w3.org/2000/svg">
<rect width="134.132" height="46.8649" rx="8" fill="black"/>
<path d="M46.0246 17.9727C45.9625 17.9727 45.9097 17.954 45.8662 17.9168C45.829 17.8733 45.8104 17.8205 45.8104 17.7584V11.6761C45.8104 11.6078 45.829 11.555 45.8662 11.5178C45.9097 11.4743 45.9625 11.4526 46.0246 11.4526H48.139C49.0766 11.4526 49.7535 11.6637 50.1695 12.0859C50.5856 12.502 50.8029 13.1323 50.8215 13.9768C50.8277 14.1568 50.8308 14.399 50.8308 14.7033C50.8308 15.0076 50.8277 15.2528 50.8215 15.4391C50.8029 16.029 50.7035 16.5103 50.5235 16.8829C50.3496 17.2492 50.0733 17.5225 49.6945 17.7025C49.3157 17.8826 48.8127 17.9727 48.1855 17.9727H46.0246ZM48.139 17.1809C48.5674 17.1809 48.9059 17.1219 49.1542 17.004C49.4088 16.886 49.592 16.6997 49.7038 16.4451C49.8218 16.1843 49.887 15.8365 49.8994 15.4019C49.9118 15.0293 49.918 14.7964 49.918 14.7033C49.918 14.6039 49.9118 14.3742 49.8994 14.014C49.887 13.3993 49.741 12.9522 49.4616 12.6727C49.1822 12.3871 48.7258 12.2443 48.0924 12.2443H46.7232V17.1809H48.139ZM54.0951 18.0658C53.412 18.0658 52.8811 17.8733 52.5023 17.4883C52.1298 17.1033 51.9311 16.591 51.9062 15.9514L51.8969 15.5509L51.9062 15.1504C51.9311 14.517 52.1329 14.0078 52.5117 13.6228C52.8904 13.2316 53.4183 13.036 54.0951 13.036C54.772 13.036 55.2998 13.2316 55.6786 13.6228C56.0573 14.0078 56.2592 14.517 56.284 15.1504C56.2902 15.2187 56.2933 15.3522 56.2933 15.5509C56.2933 15.7496 56.2902 15.8831 56.284 15.9514C56.2592 16.591 56.0573 17.1033 55.6786 17.4883C55.306 17.8733 54.7782 18.0658 54.0951 18.0658ZM54.0951 17.3486C54.4863 17.3486 54.7937 17.2244 55.0172 16.976C55.247 16.7276 55.3712 16.3706 55.3898 15.9049C55.396 15.8428 55.3991 15.7248 55.3991 15.5509C55.3991 15.377 55.396 15.2591 55.3898 15.197C55.3712 14.7312 55.247 14.3742 55.0172 14.1258C54.7937 13.8774 54.4863 13.7532 54.0951 13.7532C53.7039 13.7532 53.3934 13.8774 53.1637 14.1258C52.9339 14.3742 52.8128 14.7312 52.8004 15.197L52.7911 15.5509L52.8004 15.9049C52.8128 16.3706 52.9339 16.7276 53.1637 16.976C53.3934 17.2244 53.7039 17.3486 54.0951 17.3486ZM58.6177 17.9727C58.537 17.9727 58.4749 17.954 58.4314 17.9168C58.3879 17.8795 58.3507 17.8205 58.3196 17.7398L56.997 13.4179L56.9784 13.3248C56.9784 13.2689 56.997 13.2223 57.0342 13.185C57.0777 13.1478 57.1243 13.1292 57.174 13.1292H57.5838C57.6459 13.1292 57.6956 13.1478 57.7328 13.185C57.7763 13.2161 57.8042 13.2502 57.8167 13.2875L58.8506 16.799L59.959 13.3248C59.9714 13.2751 59.9993 13.2316 60.0428 13.1944C60.0863 13.1509 60.1453 13.1292 60.2198 13.1292H60.5365C60.611 13.1292 60.67 13.1509 60.7135 13.1944C60.7569 13.2316 60.7849 13.2751 60.7973 13.3248L61.9057 16.799L62.9396 13.2875C62.9458 13.2564 62.9675 13.2223 63.0048 13.185C63.0483 13.1478 63.1011 13.1292 63.1631 13.1292H63.5823C63.632 13.1292 63.6754 13.1478 63.7127 13.185C63.75 13.2223 63.7686 13.2689 63.7686 13.3248L63.75 13.4179L62.4366 17.7398C62.4056 17.8205 62.3683 17.8795 62.3248 17.9168C62.2814 17.954 62.2162 17.9727 62.1292 17.9727H61.766C61.5983 17.9727 61.4959 17.895 61.4586 17.7398L60.3781 14.4052L59.2977 17.7398C59.248 17.895 59.1424 17.9727 58.981 17.9727H58.6177ZM65.0145 17.9727C64.9524 17.9727 64.8996 17.954 64.8561 17.9168C64.8189 17.8733 64.8002 17.8205 64.8002 17.7584V13.3434C64.8002 13.2813 64.8189 13.2316 64.8561 13.1944C64.8996 13.1509 64.9524 13.1292 65.0145 13.1292H65.4522C65.5143 13.1292 65.564 13.1509 65.6013 13.1944C65.6447 13.2316 65.6665 13.2813 65.6665 13.3434V13.7532C65.8466 13.5235 66.0577 13.3465 66.2999 13.2223C66.5482 13.0981 66.8556 13.036 67.222 13.036C67.8181 13.036 68.2807 13.2285 68.6098 13.6135C68.9452 13.9923 69.1128 14.4984 69.1128 15.1318V17.7584C69.1128 17.8205 69.0911 17.8733 69.0476 17.9168C69.0104 17.954 68.9607 17.9727 68.8986 17.9727H68.4329C68.3708 17.9727 68.318 17.954 68.2745 17.9168C68.2373 17.8733 68.2186 17.8205 68.2186 17.7584V15.1783C68.2186 14.7374 68.11 14.3959 67.8926 14.1537C67.6815 13.9116 67.3741 13.7905 66.9705 13.7905C66.5793 13.7905 66.2688 13.9147 66.039 14.1631C65.8093 14.4052 65.6944 14.7437 65.6944 15.1783V17.7584C65.6944 17.8205 65.6727 17.8733 65.6292 17.9168C65.592 17.954 65.5423 17.9727 65.4802 17.9727H65.0145ZM70.6725 17.9727C70.6104 17.9727 70.5576 17.954 70.5141 17.9168C70.4769 17.8733 70.4582 17.8205 70.4582 17.7584V11.5736C70.4582 11.5115 70.4769 11.4619 70.5141 11.4246C70.5576 11.3811 70.6104 11.3594 70.6725 11.3594H71.1103C71.1723 11.3594 71.222 11.3811 71.2593 11.4246C71.3028 11.4619 71.3245 11.5115 71.3245 11.5736V17.7584C71.3245 17.8205 71.3028 17.8733 71.2593 17.9168C71.222 17.954 71.1723 17.9727 71.1103 17.9727H70.6725ZM74.6978 18.0658C74.0148 18.0658 73.4839 17.8733 73.1051 17.4883C72.7325 17.1033 72.5338 16.591 72.5089 15.9514L72.4996 15.5509L72.5089 15.1504C72.5338 14.517 72.7356 14.0078 73.1144 13.6228C73.4932 13.2316 74.021 13.036 74.6978 13.036C75.3747 13.036 75.9025 13.2316 76.2813 13.6228C76.6601 14.0078 76.8619 14.517 76.8867 15.1504C76.8929 15.2187 76.896 15.3522 76.896 15.5509C76.896 15.7496 76.8929 15.8831 76.8867 15.9514C76.8619 16.591 76.6601 17.1033 76.2813 17.4883C75.9087 17.8733 75.3809 18.0658 74.6978 18.0658ZM74.6978 17.3486C75.089 17.3486 75.3964 17.2244 75.62 16.976C75.8497 16.7276 75.9739 16.3706 75.9925 15.9049C75.9988 15.8428 76.0019 15.7248 76.0019 15.5509C76.0019 15.377 75.9988 15.2591 75.9925 15.197C75.9739 14.7312 75.8497 14.3742 75.62 14.1258C75.3964 13.8774 75.089 13.7532 74.6978 13.7532C74.3066 13.7532 73.9961 13.8774 73.7664 14.1258C73.5366 14.3742 73.4155 14.7312 73.4031 15.197L73.3938 15.5509L73.4031 15.9049C73.4155 16.3706 73.5366 16.7276 73.7664 16.976C73.9961 17.2244 74.3066 17.3486 74.6978 17.3486ZM79.413 18.0658C79.1087 18.0658 78.8262 18.0037 78.5654 17.8795C78.3046 17.7553 78.0965 17.5877 77.9413 17.3765C77.7923 17.1592 77.7177 16.9201 77.7177 16.6593C77.7177 16.2495 77.8854 15.9142 78.2207 15.6534C78.5623 15.3863 79.0218 15.2125 79.5993 15.1318L80.9871 14.9362V14.666C80.9871 14.0327 80.6239 13.716 79.8973 13.716C79.6241 13.716 79.4006 13.775 79.2267 13.8929C79.0528 14.0047 78.9224 14.1382 78.8355 14.2935C78.8169 14.3493 78.792 14.3897 78.761 14.4145C78.7361 14.4394 78.6989 14.4518 78.6492 14.4518H78.2487C78.1928 14.4518 78.1431 14.4332 78.0996 14.3959C78.0624 14.3524 78.0438 14.3028 78.0438 14.2469C78.05 14.0979 78.1183 13.9302 78.2487 13.7439C78.3853 13.5514 78.5933 13.3868 78.8727 13.2502C79.1522 13.1074 79.4968 13.036 79.9066 13.036C80.6021 13.036 81.102 13.2006 81.4063 13.5297C81.7105 13.8526 81.8627 14.2562 81.8627 14.7405V17.7584C81.8627 17.8205 81.8409 17.8733 81.7975 17.9168C81.7602 17.954 81.7105 17.9727 81.6484 17.9727H81.22C81.1579 17.9727 81.1051 17.954 81.0616 17.9168C81.0244 17.8733 81.0057 17.8205 81.0057 17.7584V17.3579C80.8691 17.5566 80.6704 17.7243 80.4096 17.8609C80.1488 17.9975 79.8166 18.0658 79.413 18.0658ZM79.6086 17.3672C80.0122 17.3672 80.3413 17.2368 80.5959 16.976C80.8567 16.709 80.9871 16.3271 80.9871 15.8303V15.5695L79.9066 15.7279C79.4658 15.79 79.1335 15.8955 78.91 16.0446C78.6865 16.1874 78.5747 16.3706 78.5747 16.5941C78.5747 16.8425 78.6771 17.035 78.8821 17.1716C79.087 17.302 79.3291 17.3672 79.6086 17.3672ZM84.9714 18.0658C84.3256 18.0658 83.8382 17.8547 83.5091 17.4324C83.18 17.0102 83.0061 16.4761 82.9875 15.8303L82.9781 15.5509L82.9875 15.2715C83.0061 14.6319 83.18 14.101 83.5091 13.6787C83.8382 13.2502 84.3256 13.036 84.9714 13.036C85.611 13.036 86.114 13.2627 86.4804 13.716V11.5736C86.4804 11.5115 86.499 11.4619 86.5363 11.4246C86.5797 11.3811 86.6325 11.3594 86.6946 11.3594H87.1417C87.2038 11.3594 87.2535 11.3811 87.2907 11.4246C87.3342 11.4619 87.3559 11.5115 87.3559 11.5736V17.7584C87.3559 17.8205 87.3342 17.8733 87.2907 17.9168C87.2535 17.954 87.2038 17.9727 87.1417 17.9727H86.7226C86.6605 17.9727 86.6077 17.954 86.5642 17.9168C86.5269 17.8733 86.5083 17.8205 86.5083 17.7584V17.3672C86.1482 17.8329 85.6359 18.0658 84.9714 18.0658ZM85.167 17.3113C85.5955 17.3113 85.9153 17.1716 86.1264 16.8922C86.3438 16.6065 86.4617 16.2681 86.4804 15.8769C86.4866 15.8086 86.4897 15.6906 86.4897 15.523C86.4897 15.3491 86.4866 15.228 86.4804 15.1597C86.468 14.7933 86.35 14.4735 86.1264 14.2003C85.9029 13.9271 85.5831 13.7905 85.167 13.7905C84.7262 13.7905 84.4033 13.9271 84.1983 14.2003C83.9996 14.4735 83.891 14.8337 83.8723 15.2808L83.863 15.5509C83.863 16.7245 84.2977 17.3113 85.167 17.3113ZM93.0083 18.0658C92.3253 18.0658 91.7944 17.8733 91.4156 17.4883C91.043 17.1033 90.8443 16.591 90.8194 15.9514L90.8101 15.5509L90.8194 15.1504C90.8443 14.517 91.0461 14.0078 91.4249 13.6228C91.8037 13.2316 92.3315 13.036 93.0083 13.036C93.6852 13.036 94.213 13.2316 94.5918 13.6228C94.9706 14.0078 95.1724 14.517 95.1972 15.1504C95.2034 15.2187 95.2065 15.3522 95.2065 15.5509C95.2065 15.7496 95.2034 15.8831 95.1972 15.9514C95.1724 16.591 94.9706 17.1033 94.5918 17.4883C94.2192 17.8733 93.6914 18.0658 93.0083 18.0658ZM93.0083 17.3486C93.3995 17.3486 93.7069 17.2244 93.9305 16.976C94.1602 16.7276 94.2844 16.3706 94.303 15.9049C94.3093 15.8428 94.3124 15.7248 94.3124 15.5509C94.3124 15.377 94.3093 15.2591 94.303 15.197C94.2844 14.7312 94.1602 14.3742 93.9305 14.1258C93.7069 13.8774 93.3995 13.7532 93.0083 13.7532C92.6171 13.7532 92.3067 13.8774 92.0769 14.1258C91.8471 14.3742 91.7261 14.7312 91.7136 15.197L91.7043 15.5509L91.7136 15.9049C91.7261 16.3706 91.8471 16.7276 92.0769 16.976C92.3067 17.2244 92.6171 17.3486 93.0083 17.3486ZM96.5871 17.9727C96.525 17.9727 96.4722 17.954 96.4288 17.9168C96.3915 17.8733 96.3729 17.8205 96.3729 17.7584V13.3434C96.3729 13.2813 96.3915 13.2316 96.4288 13.1944C96.4722 13.1509 96.525 13.1292 96.5871 13.1292H97.0249C97.087 13.1292 97.1367 13.1509 97.1739 13.1944C97.2174 13.2316 97.2391 13.2813 97.2391 13.3434V13.7532C97.4192 13.5235 97.6303 13.3465 97.8725 13.2223C98.1209 13.0981 98.4283 13.036 98.7946 13.036C99.3908 13.036 99.8534 13.2285 100.182 13.6135C100.518 13.9923 100.685 14.4984 100.685 15.1318V17.7584C100.685 17.8205 100.664 17.8733 100.62 17.9168C100.583 17.954 100.533 17.9727 100.471 17.9727H100.006C99.9434 17.9727 99.8906 17.954 99.8472 17.9168C99.8099 17.8733 99.7913 17.8205 99.7913 17.7584V15.1783C99.7913 14.7374 99.6826 14.3959 99.4653 14.1537C99.2542 13.9116 98.9468 13.7905 98.5432 13.7905C98.1519 13.7905 97.8415 13.9147 97.6117 14.1631C97.382 14.4052 97.2671 14.7437 97.2671 15.1783V17.7584C97.2671 17.8205 97.2453 17.8733 97.2019 17.9168C97.1646 17.954 97.1149 17.9727 97.0528 17.9727H96.5871ZM105.995 17.9727C105.014 17.9727 104.524 17.4262 104.524 16.3333V13.8743H103.797C103.735 13.8743 103.682 13.8557 103.639 13.8184C103.602 13.775 103.583 13.7222 103.583 13.6601V13.3434C103.583 13.2813 103.602 13.2316 103.639 13.1944C103.682 13.1509 103.735 13.1292 103.797 13.1292H104.524V11.5736C104.524 11.5115 104.542 11.4619 104.58 11.4246C104.623 11.3811 104.676 11.3594 104.738 11.3594H105.176C105.238 11.3594 105.288 11.3811 105.325 11.4246C105.368 11.4619 105.39 11.5115 105.39 11.5736V13.1292H106.545C106.607 13.1292 106.657 13.1509 106.694 13.1944C106.737 13.2316 106.759 13.2813 106.759 13.3434V13.6601C106.759 13.7222 106.737 13.775 106.694 13.8184C106.657 13.8557 106.607 13.8743 106.545 13.8743H105.39V16.2681C105.39 16.5786 105.443 16.8146 105.548 16.976C105.654 17.1313 105.828 17.2089 106.07 17.2089H106.638C106.7 17.2089 106.75 17.2306 106.787 17.2741C106.831 17.3113 106.852 17.361 106.852 17.4231V17.7584C106.852 17.8205 106.831 17.8733 106.787 17.9168C106.75 17.954 106.7 17.9727 106.638 17.9727H105.995ZM107.967 17.9727C107.904 17.9727 107.852 17.954 107.808 17.9168C107.771 17.8733 107.752 17.8205 107.752 17.7584V11.5736C107.752 11.5115 107.771 11.4619 107.808 11.4246C107.852 11.3811 107.904 11.3594 107.967 11.3594H108.432C108.494 11.3594 108.544 11.3811 108.581 11.4246C108.625 11.4619 108.647 11.5115 108.647 11.5736V13.7439C108.827 13.5141 109.038 13.3403 109.28 13.2223C109.522 13.0981 109.823 13.036 110.183 13.036C110.78 13.036 111.242 13.2285 111.571 13.6135C111.907 13.9923 112.074 14.4984 112.074 15.1318V17.7584C112.074 17.8205 112.053 17.8733 112.009 17.9168C111.972 17.954 111.922 17.9727 111.86 17.9727H111.394C111.332 17.9727 111.279 17.954 111.236 17.9168C111.199 17.8733 111.18 17.8205 111.18 17.7584V15.1783C111.18 14.7374 111.071 14.3959 110.854 14.1537C110.643 13.9116 110.336 13.7905 109.932 13.7905C109.541 13.7905 109.227 13.9147 108.991 14.1631C108.761 14.4052 108.647 14.7437 108.647 15.1783V17.7584C108.647 17.8205 108.625 17.8733 108.581 17.9168C108.544 17.954 108.494 17.9727 108.432 17.9727H107.967ZM115.356 18.0658C114.717 18.0658 114.205 17.8702 113.82 17.479C113.441 17.0816 113.233 16.5413 113.195 15.8583L113.186 15.5416L113.195 15.2342C113.239 14.5636 113.45 14.0295 113.829 13.6321C114.214 13.2347 114.72 13.036 115.347 13.036C116.036 13.036 116.57 13.2564 116.949 13.6973C117.328 14.132 117.517 14.7219 117.517 15.4671V15.6254C117.517 15.6875 117.496 15.7403 117.452 15.7838C117.415 15.821 117.365 15.8397 117.303 15.8397H114.08V15.9235C114.099 16.3271 114.22 16.6717 114.444 16.9574C114.673 17.2368 114.975 17.3765 115.347 17.3765C115.633 17.3765 115.866 17.3206 116.046 17.2089C116.232 17.0909 116.369 16.9698 116.456 16.8456C116.511 16.7711 116.552 16.7276 116.577 16.7152C116.608 16.6966 116.66 16.6873 116.735 16.6873H117.191C117.247 16.6873 117.294 16.7028 117.331 16.7338C117.368 16.7649 117.387 16.8084 117.387 16.8642C117.387 17.0009 117.3 17.1654 117.126 17.3579C116.959 17.5504 116.719 17.7181 116.409 17.8609C116.105 17.9975 115.754 18.0658 115.356 18.0658ZM116.633 15.197V15.169C116.633 14.7405 116.515 14.3928 116.279 14.1258C116.049 13.8526 115.738 13.716 115.347 13.716C114.956 13.716 114.645 13.8526 114.416 14.1258C114.192 14.3928 114.08 14.7405 114.08 15.169V15.197H116.633Z" fill="white"/>
<path d="M44.5542 35.0898C44.4698 35.0898 44.3906 35.0582 44.3167 34.9948C44.2534 34.9315 44.2217 34.8523 44.2217 34.7573L44.2534 34.6148L48.0695 24.4015C48.1434 24.1376 48.3281 24.0057 48.6237 24.0057H50.3496C50.6241 24.0057 50.8089 24.1376 50.9039 24.4015L54.72 34.6148C54.7305 34.6465 54.7358 34.694 54.7358 34.7573C54.7358 34.8523 54.7041 34.9315 54.6408 34.9948C54.5775 35.0582 54.5036 35.0898 54.4191 35.0898H53.0415C52.9043 35.0898 52.7987 35.0582 52.7248 34.9948C52.6509 34.9315 52.6034 34.8629 52.5823 34.789L51.8381 32.8572H47.1352L46.391 34.789C46.3066 34.9896 46.1535 35.0898 45.9318 35.0898H44.5542ZM51.2839 31.0362L49.4788 26.1433L47.6894 31.0362H51.2839ZM56.42 38.0984C56.3144 38.0984 56.2247 38.0615 56.1508 37.9876C56.0769 37.9242 56.0399 37.8345 56.0399 37.7184V27.2359C56.0399 27.1198 56.0769 27.0301 56.1508 26.9667C56.2247 26.8928 56.3144 26.8559 56.42 26.8559H57.6709C57.787 26.8559 57.8767 26.8928 57.9401 26.9667C58.014 27.0301 58.0509 27.1198 58.0509 27.2359V27.8693C58.6421 27.0881 59.4866 26.6975 60.5845 26.6975C61.6506 26.6975 62.4688 27.0353 63.0388 27.7109C63.6088 28.376 63.915 29.2786 63.9572 30.4187C63.9678 30.5453 63.973 30.7301 63.973 30.9729C63.973 31.2262 63.9678 31.4162 63.9572 31.5429C63.915 32.6513 63.6088 33.5486 63.0388 34.2348C62.4688 34.9104 61.6506 35.2482 60.5845 35.2482C59.5183 35.2482 58.7054 34.8734 58.1459 34.1239V37.7184C58.1459 37.8345 58.109 37.9242 58.0351 37.9876C57.9718 38.0615 57.882 38.0984 57.7659 38.0984H56.42ZM59.9986 33.5539C61.1387 33.5539 61.7457 32.8519 61.8195 31.4479C61.8301 31.3423 61.8354 31.184 61.8354 30.9729C61.8354 30.7617 61.8301 30.6034 61.8195 30.4978C61.7457 29.0938 61.1387 28.3918 59.9986 28.3918C59.3863 28.3918 58.9324 28.5871 58.6368 28.9777C58.3412 29.3683 58.1776 29.8486 58.1459 30.4187L58.1301 31.0204L58.1459 31.6379C58.167 32.1657 58.3307 32.6197 58.6368 32.9997C58.9535 33.3692 59.4074 33.5539 59.9986 33.5539ZM66.1465 38.0984C66.0409 38.0984 65.9512 38.0615 65.8773 37.9876C65.8034 37.9242 65.7664 37.8345 65.7664 37.7184V27.2359C65.7664 27.1198 65.8034 27.0301 65.8773 26.9667C65.9512 26.8928 66.0409 26.8559 66.1465 26.8559H67.3974C67.5135 26.8559 67.6032 26.8928 67.6666 26.9667C67.7405 27.0301 67.7774 27.1198 67.7774 27.2359V27.8693C68.3686 27.0881 69.2131 26.6975 70.3109 26.6975C71.3771 26.6975 72.1952 27.0353 72.7653 27.7109C73.3353 28.376 73.6415 29.2786 73.6837 30.4187C73.6943 30.5453 73.6995 30.7301 73.6995 30.9729C73.6995 31.2262 73.6943 31.4162 73.6837 31.5429C73.6415 32.6513 73.3353 33.5486 72.7653 34.2348C72.1952 34.9104 71.3771 35.2482 70.3109 35.2482C69.2447 35.2482 68.4319 34.8734 67.8724 34.1239V37.7184C67.8724 37.8345 67.8355 37.9242 67.7616 37.9876C67.6982 38.0615 67.6085 38.0984 67.4924 38.0984H66.1465ZM69.7251 33.5539C70.8651 33.5539 71.4721 32.8519 71.546 31.4479C71.5566 31.3423 71.5619 31.184 71.5619 30.9729C71.5619 30.7617 71.5566 30.6034 71.546 30.4978C71.4721 29.0938 70.8651 28.3918 69.7251 28.3918C69.1128 28.3918 68.6589 28.5871 68.3633 28.9777C68.0677 29.3683 67.9041 29.8486 67.8724 30.4187L67.8566 31.0204L67.8724 31.6379C67.8935 32.1657 68.0572 32.6197 68.3633 32.9997C68.68 33.3692 69.1339 33.5539 69.7251 33.5539ZM83.1333 35.2482C82.1938 35.2482 81.3863 35.1057 80.7106 34.8207C80.035 34.5356 79.5231 34.1609 79.1747 33.6964C78.8263 33.2319 78.6416 32.7305 78.6205 32.1921C78.6205 32.0971 78.6522 32.0179 78.7155 31.9546C78.7788 31.8913 78.858 31.8596 78.953 31.8596H80.3623C80.489 31.8596 80.584 31.886 80.6473 31.9388C80.7212 31.981 80.7898 32.0549 80.8532 32.1605C80.9587 32.5194 81.2015 32.8202 81.5815 33.063C81.9616 33.3058 82.4788 33.4272 83.1333 33.4272C83.8828 33.4272 84.4476 33.3058 84.8276 33.063C85.2077 32.8097 85.3977 32.4613 85.3977 32.0179C85.3977 31.7224 85.2974 31.4796 85.0968 31.2896C84.9068 31.0995 84.6165 30.9359 84.2259 30.7987C83.8459 30.6615 83.2758 30.4925 82.5158 30.292C81.2701 29.9964 80.357 29.6058 79.7764 29.1202C79.2064 28.6241 78.9213 27.9221 78.9213 27.0142C78.9213 26.402 79.085 25.8583 79.4122 25.3833C79.75 24.9082 80.2303 24.5335 80.8532 24.259C81.4865 23.9846 82.2202 23.8473 83.0542 23.8473C83.9198 23.8473 84.6693 24.0004 85.3027 24.3065C85.936 24.6127 86.4164 24.998 86.7436 25.4624C87.0814 25.9164 87.2609 26.3703 87.282 26.8242C87.282 26.9192 87.2503 26.9984 87.187 27.0617C87.1236 27.1251 87.0445 27.1567 86.9495 27.1567H85.4768C85.2552 27.1567 85.1021 27.0565 85.0176 26.8559C84.9543 26.5181 84.7432 26.2383 84.3843 26.0167C84.0253 25.7844 83.582 25.6683 83.0542 25.6683C82.463 25.6683 81.9985 25.7791 81.6607 26.0008C81.3229 26.2225 81.154 26.5445 81.154 26.9667C81.154 27.2623 81.2385 27.5051 81.4074 27.6951C81.5763 27.8851 81.8402 28.054 82.1991 28.2018C82.5686 28.3496 83.0964 28.5132 83.7825 28.6927C84.7115 28.9038 85.4504 29.1413 85.9994 29.4052C86.5589 29.6692 86.9706 30.0017 87.2345 30.4028C87.4984 30.804 87.6303 31.3159 87.6303 31.9388C87.6303 32.6144 87.4403 33.2055 87.0603 33.7122C86.6908 34.2084 86.163 34.5884 85.4768 34.8523C84.8012 35.1162 84.0201 35.2482 83.1333 35.2482ZM92.9761 35.0898C92.0155 35.0898 91.2924 34.8418 90.8068 34.3456C90.3317 33.8389 90.0942 33.1 90.0942 32.1288V28.5343H88.8433C88.7377 28.5343 88.648 28.4974 88.5741 28.4235C88.5002 28.3391 88.4633 28.244 88.4633 28.1385V27.2359C88.4633 27.1303 88.5002 27.0406 88.5741 26.9667C88.648 26.8928 88.7377 26.8559 88.8433 26.8559H90.0942V24.2274C90.0942 24.1112 90.1312 24.0215 90.2051 23.9582C90.2789 23.8843 90.3687 23.8473 90.4742 23.8473H91.7568C91.873 23.8473 91.9627 23.8843 92.026 23.9582C92.0999 24.0215 92.1369 24.1112 92.1369 24.2274V26.8559H94.1162C94.2323 26.8559 94.322 26.8928 94.3854 26.9667C94.4593 27.0301 94.4962 27.1198 94.4962 27.2359V28.1385C94.4962 28.2546 94.4593 28.3496 94.3854 28.4235C94.3115 28.4974 94.2218 28.5343 94.1162 28.5343H92.1369V31.9704C92.1369 32.4244 92.216 32.7674 92.3744 32.9997C92.5327 33.2319 92.7966 33.348 93.1661 33.348H94.2587C94.3643 33.348 94.454 33.385 94.5279 33.4589C94.6018 33.5328 94.6387 33.6225 94.6387 33.7281V34.7098C94.6387 34.8154 94.6018 34.9051 94.5279 34.979C94.4645 35.0529 94.3748 35.0898 94.2587 35.0898H92.9761ZM99.6854 35.2482C98.4503 35.2482 97.4949 34.9315 96.8193 34.2981C96.1437 33.6542 95.7795 32.778 95.7267 31.6696L95.7109 30.9729L95.7267 30.2761C95.7795 29.1783 96.149 28.3074 96.8352 27.6634C97.5213 27.0195 98.4714 26.6975 99.6854 26.6975C100.899 26.6975 101.849 27.0195 102.536 27.6634C103.222 28.3074 103.591 29.1783 103.644 30.2761C103.655 30.4028 103.66 30.6351 103.66 30.9729C103.66 31.3107 103.655 31.5429 103.644 31.6696C103.591 32.778 103.227 33.6542 102.551 34.2981C101.876 34.9315 100.92 35.2482 99.6854 35.2482ZM99.6854 33.6806C100.245 33.6806 100.678 33.5064 100.984 33.158C101.29 32.7991 101.459 32.2766 101.491 31.5904C101.501 31.4848 101.506 31.279 101.506 30.9729C101.506 30.6667 101.501 30.4609 101.491 30.3553C101.459 29.6692 101.29 29.1519 100.984 28.8035C100.678 28.4446 100.245 28.2652 99.6854 28.2652C99.1259 28.2652 98.6931 28.4446 98.3869 28.8035C98.0808 29.1519 97.9119 29.6692 97.8802 30.3553L97.8644 30.9729L97.8802 31.5904C97.9119 32.2766 98.0808 32.7991 98.3869 33.158C98.6931 33.5064 99.1259 33.6806 99.6854 33.6806ZM105.794 35.0898C105.689 35.0898 105.599 35.0529 105.525 34.979C105.451 34.9051 105.414 34.8154 105.414 34.7098V27.2517C105.414 27.1462 105.451 27.0565 105.525 26.9826C105.599 26.8981 105.689 26.8559 105.794 26.8559H107.077C107.193 26.8559 107.288 26.8928 107.362 26.9667C107.436 27.0406 107.473 27.1356 107.473 27.2517V27.901C107.726 27.5632 108.043 27.3045 108.423 27.1251C108.813 26.9456 109.257 26.8559 109.753 26.8559H110.402C110.518 26.8559 110.608 26.8928 110.671 26.9667C110.745 27.0301 110.782 27.1198 110.782 27.2359V28.376C110.782 28.4816 110.745 28.5713 110.671 28.6452C110.608 28.7191 110.518 28.756 110.402 28.756H109.167C108.671 28.756 108.28 28.8985 107.995 29.1836C107.71 29.4686 107.568 29.8592 107.568 30.3553V34.7098C107.568 34.8154 107.531 34.9051 107.457 34.979C107.383 35.0529 107.288 35.0898 107.172 35.0898H105.794ZM115.456 35.2482C114.284 35.2482 113.35 34.9104 112.653 34.2348C111.967 33.5486 111.603 32.588 111.561 31.3529L111.545 30.957L111.561 30.5612C111.613 29.3577 111.983 28.4129 112.669 27.7268C113.366 27.0406 114.295 26.6975 115.456 26.6975C116.701 26.6975 117.662 27.0776 118.338 27.8376C119.024 28.5977 119.367 29.6111 119.367 30.8779V31.2104C119.367 31.3159 119.33 31.4057 119.256 31.4796C119.182 31.5535 119.087 31.5904 118.971 31.5904H113.714V31.7171C113.735 32.2977 113.893 32.7886 114.189 33.1897C114.495 33.5803 114.912 33.7756 115.44 33.7756C116.063 33.7756 116.564 33.5328 116.944 33.0472C117.039 32.9311 117.113 32.8572 117.166 32.8255C117.229 32.7938 117.319 32.778 117.435 32.778H118.797C118.892 32.778 118.971 32.8097 119.034 32.873C119.108 32.9258 119.145 32.9944 119.145 33.0789C119.145 33.3322 118.992 33.6331 118.686 33.9814C118.39 34.3192 117.963 34.6148 117.403 34.8682C116.844 35.1215 116.195 35.2482 115.456 35.2482ZM117.213 30.2603V30.2128C117.213 29.59 117.055 29.0886 116.738 28.7085C116.432 28.3285 116.005 28.1385 115.456 28.1385C114.907 28.1385 114.479 28.3285 114.173 28.7085C113.867 29.0886 113.714 29.59 113.714 30.2128V30.2603H117.213Z" fill="white"/>
<path d="M12.072 20.4539C10.1276 23.8281 11.3637 28.9486 13.514 32.0534C14.5873 33.6056 15.6739 34.999 17.1623 34.999C17.1903 34.999 17.2185 34.9985 17.2473 34.9973C17.9465 34.9694 18.4519 34.7541 18.9404 34.5461C19.489 34.3123 20.0563 34.0706 20.9461 34.0706C21.7927 34.0706 22.3329 34.3045 22.8553 34.5305C23.3702 34.7533 23.9006 34.9838 24.6843 34.9691C26.3608 34.9378 27.3901 33.4343 28.2983 32.1079C29.246 30.723 29.7213 29.3784 29.8817 28.8646L29.8882 28.8441C29.9188 28.7528 29.8756 28.6531 29.7881 28.6129C29.7857 28.6118 29.7768 28.6081 29.7743 28.607C29.479 28.4863 26.8893 27.3374 26.8621 24.2061C26.8368 21.6621 28.8049 20.3149 29.1996 20.0707L29.218 20.0593C29.2607 20.0317 29.2905 19.9881 29.3006 19.9381C29.3107 19.8883 29.3002 19.8364 29.2715 19.7945C27.9131 17.8065 25.831 17.5069 24.9928 17.4709C24.8711 17.4587 24.7456 17.4526 24.6195 17.4526C23.6349 17.4526 22.6918 17.8245 21.9341 18.1233C21.411 18.3295 20.9592 18.5076 20.6476 18.5076C20.2975 18.5076 19.8432 18.3273 19.317 18.1186C18.6135 17.8393 17.816 17.5229 16.9718 17.5229C16.9517 17.5229 16.9318 17.5231 16.9123 17.5235C14.9494 17.5524 13.0946 18.6754 12.072 20.4539Z" fill="white"/>
<path d="M24.9945 12.0001C23.8058 12.0486 22.3799 12.7803 21.5276 13.7785C20.8033 14.6176 20.0957 16.0166 20.2821 17.4268C20.2938 17.515 20.3656 17.5831 20.4544 17.59C20.5346 17.5962 20.6165 17.5994 20.6981 17.5995C21.8604 17.5995 23.1142 16.9565 23.9705 15.9211C24.8717 14.8278 25.3274 13.4247 25.1896 12.1679C25.1787 12.0694 25.0921 11.9963 24.9945 12.0001Z" fill="white"/>
</svg>
