<svg width="10" height="10" viewBox="0 0 10 10" fill="none" xmlns="http://www.w3.org/2000/svg">
<path d="M6.24163 4.82386L9.8103 1.25503C9.90846 1.15678 9.96263 1.02572 9.96278 0.885959C9.96278 0.746124 9.90862 0.614902 9.8103 0.516815L9.49757 0.204164C9.39925 0.10569 9.26819 0.0517578 9.12827 0.0517578C8.98859 0.0517578 8.85753 0.10569 8.75921 0.204164L5.19053 3.77276L1.6217 0.204164C1.52354 0.10569 1.39239 0.0517578 1.25256 0.0517578C1.11288 0.0517578 0.981734 0.10569 0.88357 0.204164L0.570686 0.516815C0.367063 0.720438 0.367063 1.05164 0.570686 1.25503L4.13944 4.82386L0.570686 8.39253C0.472444 8.49093 0.418357 8.62199 0.418357 8.76175C0.418357 8.90151 0.472444 9.03258 0.570686 9.1309L0.883492 9.44355C0.981656 9.54194 1.11288 9.59595 1.25248 9.59595C1.39232 9.59595 1.52346 9.54194 1.62162 9.44355L5.19045 5.87487L8.75913 9.44355C8.85745 9.54194 8.98851 9.59595 9.1282 9.59595H9.12835C9.26811 9.59595 9.39917 9.54194 9.49749 9.44355L9.81022 9.1309C9.90839 9.03265 9.96255 8.90151 9.96255 8.76175C9.96255 8.62199 9.90839 8.49093 9.81022 8.39261L6.24163 4.82386Z" fill="#5F04BA"/>
</svg>
