<svg width="23" height="21" viewBox="0 0 23 21" fill="none" xmlns="http://www.w3.org/2000/svg">
<path d="M11.751 0.636719C5.9831 0.636719 0.849609 4.57038 0.849609 9.91945C0.849609 11.8731 1.54326 13.723 2.86102 15.2973L1.72856 19.6699C1.56056 20.3183 2.17669 20.902 2.81727 20.6929L8.59467 18.8073C9.61535 19.0694 10.6758 19.2022 11.751 19.2022C17.5226 19.2022 22.6524 15.2647 22.6524 9.91945C22.6524 4.52846 17.4675 0.636719 11.751 0.636719V0.636719ZM11.751 17.4988C10.7417 17.4988 9.74876 17.3643 8.80027 17.0991C8.63825 17.0539 8.46659 17.0575 8.30657 17.1096L3.76742 18.5912L4.62308 15.2876C4.69561 15.0075 4.62092 14.7096 4.42464 14.4969C3.20019 13.1693 2.55295 11.5864 2.55295 9.91945C2.55295 5.7401 6.67924 2.3399 11.751 2.3399C16.8228 2.3399 20.9491 5.7401 20.9491 9.91945C20.9491 14.0988 16.8228 17.4988 11.751 17.4988ZM12.8156 9.91928C12.8156 10.5073 12.339 10.9839 11.751 10.9839C11.163 10.9839 10.6864 10.5073 10.6864 9.91928C10.6864 9.33143 11.163 8.85469 11.751 8.85469C12.339 8.85469 12.8156 9.33143 12.8156 9.91928ZM17.074 9.91928C17.074 10.5073 16.5974 10.9839 16.0094 10.9839C15.4214 10.9839 14.9448 10.5073 14.9448 9.91928C14.9448 9.33143 15.4214 8.85469 16.0094 8.85469C16.5974 8.85469 17.074 9.33143 17.074 9.91928ZM8.55725 9.91928C8.55725 10.5073 8.08068 10.9839 7.49265 10.9839C6.90463 10.9839 6.42806 10.5073 6.42806 9.91928C6.42806 9.33143 6.90463 8.85469 7.49265 8.85469C8.08068 8.85469 8.55725 9.33143 8.55725 9.91928Z" fill="white"/>
</svg>
