<svg width="23" height="22" viewBox="0 0 23 22" fill="none" xmlns="http://www.w3.org/2000/svg">
<g clip-path="url(#clip0_602:3909)">
<path fill-rule="evenodd" clip-rule="evenodd" d="M0.662458 10.9015C0.662458 16.6944 5.376 21.4079 11.1689 21.4079C16.9618 21.4079 21.6754 16.6944 21.6754 10.9015C21.6754 5.10854 16.9618 0.395054 11.1689 0.395054C5.376 0.395054 0.662458 5.10854 0.662458 10.9015ZM2.16338 10.9014C2.16338 15.8668 6.20355 19.907 11.1689 19.907C16.1342 19.907 20.1744 15.8668 20.1744 10.9014C20.1744 5.93609 16.1342 1.89597 11.1689 1.89597C6.20355 1.89597 2.16338 5.93609 2.16338 10.9014Z" fill="white"/>
<path d="M16.2443 5.82725C16.1069 5.68884 15.8993 5.64903 15.722 5.72679L9.08639 8.57063C8.97455 8.61804 8.88541 8.70807 8.83706 8.81996L5.99322 15.4556C5.91644 15.6338 5.95625 15.8404 6.09369 15.9779C6.18469 16.067 6.30604 16.1153 6.42926 16.1153C6.49183 16.1153 6.55532 16.1021 6.61602 16.0774L13.2516 13.2336C13.3635 13.1853 13.4526 13.0962 13.501 12.9843L16.3448 6.34866C16.4207 6.17043 16.3808 5.96376 16.2443 5.82725ZM11.169 11.8496C10.6467 11.8496 10.2211 11.4239 10.2211 10.9016C10.2211 10.3793 10.6467 9.95372 11.169 9.95372C11.6913 9.95372 12.1169 10.3794 12.1169 10.9016C12.117 11.4239 11.6913 11.8496 11.169 11.8496Z" fill="white"/>
</g>
<defs>
<clipPath id="clip0_602:3909">
<rect width="21.8028" height="21.8028" fill="white" transform="translate(0.267578)"/>
</clipPath>
</defs>
</svg>
