<svg width="19" height="10" viewBox="0 0 19 10" fill="none" xmlns="http://www.w3.org/2000/svg">
<path d="M1.95867 0.367663C1.54472 -0.0568926 0.864972 -0.0654889 0.440416 0.348462C0.0158613 0.762413 0.00726497 1.44216 0.421216 1.86671L1.95867 0.367663ZM17.7041 1.86819C18.1189 1.44443 18.1116 0.76467 17.6878 0.349904C17.2641 -0.0648624 16.5843 -0.0575721 16.1695 0.366187L17.7041 1.86819ZM10.0733 8.12956L9.30598 7.37856L10.0733 8.12956ZM0.421216 1.86671L7.25652 8.87712L8.79397 7.37807L1.95867 0.367663L0.421216 1.86671ZM10.8405 8.88056L17.7041 1.86819L16.1695 0.366187L9.30598 7.37856L10.8405 8.88056ZM7.25652 8.87712C8.23841 9.88416 9.85673 9.88571 10.8405 8.88056L9.30598 7.37856C9.16543 7.52215 8.93425 7.52193 8.79397 7.37807L7.25652 8.87712Z" fill="#5F04BA"/>
</svg>
