<svg width="21" height="22" viewBox="0 0 21 22" fill="none" xmlns="http://www.w3.org/2000/svg">
<g clip-path="url(#clip0_351:6099)">
<path d="M4.58339 13.1206L3.87137 15.7787L1.26894 15.8337C0.491198 14.3912 0.0500488 12.7407 0.0500488 10.9868C0.0500488 9.29082 0.462513 7.69147 1.19363 6.2832H1.19419L3.51108 6.70797L4.52602 9.01096C4.3136 9.63026 4.19782 10.2951 4.19782 10.9868C4.1979 11.7376 4.33389 12.4569 4.58339 13.1206Z" fill="#FBBB00"/>
<path d="M20.3267 9.07617C20.4442 9.69487 20.5054 10.3338 20.5054 10.9868C20.5054 11.7191 20.4284 12.4333 20.2818 13.1223C19.7839 15.4668 18.4829 17.514 16.6807 18.9628L16.6802 18.9622L13.7619 18.8133L13.3489 16.235C14.5447 15.5337 15.4793 14.4362 15.9716 13.1223H10.5026V9.07617H16.0514H20.3267Z" fill="#518EF8"/>
<path d="M16.6801 18.9622L16.6807 18.9627C14.928 20.3716 12.7014 21.2145 10.2777 21.2145C6.38277 21.2145 2.9964 19.0375 1.26892 15.8337L4.58337 13.1206C5.44709 15.4258 7.67078 17.0667 10.2777 17.0667C11.3983 17.0667 12.448 16.7638 13.3488 16.235L16.6801 18.9622Z" fill="#28B446"/>
<path d="M16.8061 3.11388L13.4927 5.82646C12.5605 5.24372 11.4584 4.90709 10.2778 4.90709C7.61182 4.90709 5.34655 6.6233 4.5261 9.01111L1.19422 6.28335H1.19366C2.89586 3.0015 6.32493 0.759277 10.2778 0.759277C12.7594 0.759277 15.0348 1.64325 16.8061 3.11388Z" fill="#F14336"/>
</g>
<defs>
<clipPath id="clip0_351:6099">
<rect width="20.4554" height="20.4554" fill="white" transform="translate(0.0500488 0.759277)"/>
</clipPath>
</defs>
</svg>
