<svg width="21" height="21" viewBox="0 0 21 21" fill="none" xmlns="http://www.w3.org/2000/svg">
<path d="M20.352 9.37302C20.3515 9.37255 20.3511 9.37208 20.3506 9.37162L12.0282 1.05034C11.6734 0.695483 11.2018 0.5 10.7001 0.5C10.1984 0.5 9.72681 0.695328 9.37192 1.05019L1.05384 9.36726C1.05104 9.37006 1.04824 9.37302 1.04544 9.37582C0.31697 10.1084 0.318215 11.297 1.04902 12.0278C1.3829 12.3618 1.82387 12.5552 2.29535 12.5755C2.3145 12.5773 2.3338 12.5783 2.35326 12.5783H2.68496V18.7022C2.68496 19.914 3.67104 20.9 4.88328 20.9H8.13928C8.46927 20.9 8.737 20.6325 8.737 20.3023V15.5012C8.737 14.9482 9.18684 14.4984 9.73989 14.4984H11.6604C12.2134 14.4984 12.6633 14.9482 12.6633 15.5012V20.3023C12.6633 20.6325 12.9308 20.9 13.261 20.9H16.517C17.7292 20.9 18.7153 19.914 18.7153 18.7022V12.5783H19.0229C19.5244 12.5783 19.996 12.3829 20.3511 12.0281C21.0827 11.2961 21.083 10.1055 20.352 9.37302Z" fill="#5F04BA"/>
</svg>
