<svg width="15" height="15" viewBox="0 0 15 15" fill="none" xmlns="http://www.w3.org/2000/svg">
<g opacity="0.6" clip-path="url(#clip0_372:7538)">
<path d="M10.055 9.60057C11.5448 7.26287 11.3575 7.55452 11.4004 7.49357C11.9428 6.72854 12.2295 5.82814 12.2295 4.88965C12.2295 2.40082 10.2099 0.350586 7.71777 0.350586C5.23381 0.350586 3.20605 2.39677 3.20605 4.88965C3.20605 5.82754 3.49874 6.75151 4.05891 7.52684L5.38048 9.60059C3.9675 9.81773 1.56543 10.4648 1.56543 11.8896C1.56543 12.409 1.90444 13.1492 3.51947 13.726C4.64718 14.1288 6.13815 14.3506 7.71777 14.3506C10.6716 14.3506 13.8701 13.5174 13.8701 11.8896C13.8701 10.4646 11.4709 9.81817 10.055 9.60057ZM4.74411 7.07564C4.7396 7.06859 4.7349 7.0617 4.72998 7.05492C4.26385 6.41365 4.02637 5.65366 4.02637 4.88965C4.02637 2.83838 5.67809 1.1709 7.71777 1.1709C9.75321 1.1709 11.4092 2.83911 11.4092 4.88965C11.4092 5.65489 11.1762 6.3891 10.7353 7.01346C10.6958 7.06558 10.9019 6.74533 7.71777 11.7417L4.74411 7.07564ZM7.71777 13.5303C4.49137 13.5303 2.38574 12.5819 2.38574 11.8896C2.38574 11.4244 3.46768 10.6593 5.86518 10.3611L7.37188 12.7253C7.44718 12.8435 7.57761 12.915 7.71775 12.915C7.85788 12.915 7.98834 12.8435 8.06362 12.7253L9.57028 10.3611C11.9678 10.6593 13.0498 11.4244 13.0498 11.8896C13.0498 12.576 10.9631 13.5303 7.71777 13.5303Z" fill="black"/>
<path d="M7.71777 2.83887C6.58697 2.83887 5.66699 3.75885 5.66699 4.88965C5.66699 6.02045 6.58697 6.94043 7.71777 6.94043C8.84857 6.94043 9.76855 6.02045 9.76855 4.88965C9.76855 3.75885 8.84857 2.83887 7.71777 2.83887ZM7.71777 6.12012C7.03929 6.12012 6.4873 5.56813 6.4873 4.88965C6.4873 4.21117 7.03929 3.65918 7.71777 3.65918C8.39625 3.65918 8.94824 4.21117 8.94824 4.88965C8.94824 5.56813 8.39625 6.12012 7.71777 6.12012Z" fill="black"/>
</g>
<defs>
<clipPath id="clip0_372:7538">
<rect width="14" height="14" fill="white" transform="translate(0.717773 0.350586)"/>
</clipPath>
</defs>
</svg>
