<svg width="12" height="14" viewBox="0 0 12 14" fill="none" xmlns="http://www.w3.org/2000/svg">
<path d="M9.75971 4.84174V4.03261C9.75971 2.97773 9.34066 1.96605 8.59475 1.22014C7.84883 0.474226 6.83715 0.0551758 5.78227 0.0551758C4.72739 0.0551758 3.71571 0.474226 2.9698 1.22014C2.22389 1.96605 1.80484 2.97773 1.80484 4.03261V4.84174C1.29877 5.0626 0.868031 5.42615 0.565295 5.88792C0.262559 6.3497 0.100946 6.88968 0.10022 7.44184V10.8511C0.101122 11.6043 0.400733 12.3264 0.933334 12.859C1.46593 13.3916 2.18804 13.6912 2.94125 13.6921H8.6233C9.37651 13.6912 10.0986 13.3916 10.6312 12.859C11.1638 12.3264 11.4634 11.6043 11.4643 10.8511V7.44184C11.4636 6.88968 11.302 6.3497 10.9993 5.88792C10.6965 5.42615 10.2658 5.0626 9.75971 4.84174ZM2.94125 4.03261C2.94125 3.27913 3.24057 2.5565 3.77336 2.0237C4.30616 1.49091 5.02879 1.19159 5.78227 1.19159C6.53576 1.19159 7.25839 1.49091 7.79118 2.0237C8.32398 2.5565 8.6233 3.27913 8.6233 4.03261V4.60082H2.94125V4.03261ZM10.3279 10.8511C10.3279 11.3032 10.1483 11.7367 9.82864 12.0564C9.50897 12.3761 9.07539 12.5557 8.6233 12.5557H2.94125C2.48915 12.5557 2.05558 12.3761 1.7359 12.0564C1.41622 11.7367 1.23663 11.3032 1.23663 10.8511V7.44184C1.23663 6.98975 1.41622 6.55618 1.7359 6.2365C2.05558 5.91682 2.48915 5.73723 2.94125 5.73723H8.6233C9.07539 5.73723 9.50897 5.91682 9.82864 6.2365C10.1483 6.55618 10.3279 6.98975 10.3279 7.44184V10.8511Z" fill="#5F04BA"/>
</svg>
