<svg width="12" height="13" viewBox="0 0 12 13" fill="none" xmlns="http://www.w3.org/2000/svg">
<path d="M11.2215 1.67832C10.7247 1.18145 10.0637 0.907227 9.36296 0.907227C8.65983 0.907227 7.99889 1.18145 7.50202 1.67832L1.38483 7.79551C1.31686 7.86348 1.27233 7.94785 1.25358 8.0416L0.517644 11.8221C0.487175 11.9791 0.543425 12.1338 0.648894 12.251C0.805925 12.4291 1.04733 12.3893 1.0778 12.3822L4.85827 11.6463C4.95202 11.6275 5.03874 11.583 5.10436 11.515L11.2215 5.39785C12.2481 4.37363 12.2481 2.70254 11.2215 1.67832ZM4.53249 10.7346L1.59343 11.3088L2.1653 8.36973L7.01921 3.51582L9.38639 5.88301L4.53249 10.7346ZM10.5465 4.72285L10.0637 5.20566L7.69655 2.83848L8.17936 2.35566C9.24811 1.41816 10.1903 1.99941 10.5465 2.35566C11.1981 3.00723 11.1981 4.06895 10.5465 4.72285Z" fill="#5F04BA"/>
</svg>
