<svg width="135" height="47" viewBox="0 0 135 47" fill="none" xmlns="http://www.w3.org/2000/svg">
<rect width="134.132" height="46.8649" rx="8" fill="black"/>
<path d="M46.0246 17.9727C45.9625 17.9727 45.9097 17.954 45.8662 17.9168C45.829 17.8733 45.8104 17.8205 45.8104 17.7584V11.6761C45.8104 11.6078 45.829 11.555 45.8662 11.5178C45.9097 11.4743 45.9625 11.4526 46.0246 11.4526H48.139C49.0766 11.4526 49.7535 11.6637 50.1695 12.0859C50.5856 12.502 50.8029 13.1323 50.8215 13.9768C50.8277 14.1568 50.8308 14.399 50.8308 14.7033C50.8308 15.0076 50.8277 15.2528 50.8215 15.4391C50.8029 16.029 50.7035 16.5103 50.5235 16.8829C50.3496 17.2492 50.0733 17.5225 49.6945 17.7025C49.3157 17.8826 48.8127 17.9727 48.1855 17.9727H46.0246ZM48.139 17.1809C48.5674 17.1809 48.9059 17.1219 49.1542 17.004C49.4088 16.886 49.592 16.6997 49.7038 16.4451C49.8218 16.1843 49.887 15.8365 49.8994 15.4019C49.9118 15.0293 49.918 14.7964 49.918 14.7033C49.918 14.6039 49.9118 14.3742 49.8994 14.014C49.887 13.3993 49.741 12.9522 49.4616 12.6727C49.1822 12.3871 48.7258 12.2443 48.0924 12.2443H46.7232V17.1809H48.139ZM54.0951 18.0658C53.412 18.0658 52.8811 17.8733 52.5023 17.4883C52.1298 17.1033 51.9311 16.591 51.9062 15.9514L51.8969 15.5509L51.9062 15.1504C51.9311 14.517 52.1329 14.0078 52.5117 13.6228C52.8904 13.2316 53.4183 13.036 54.0951 13.036C54.772 13.036 55.2998 13.2316 55.6786 13.6228C56.0573 14.0078 56.2592 14.517 56.284 15.1504C56.2902 15.2187 56.2933 15.3522 56.2933 15.5509C56.2933 15.7496 56.2902 15.8831 56.284 15.9514C56.2592 16.591 56.0573 17.1033 55.6786 17.4883C55.306 17.8733 54.7782 18.0658 54.0951 18.0658ZM54.0951 17.3486C54.4863 17.3486 54.7937 17.2244 55.0172 16.976C55.247 16.7276 55.3712 16.3706 55.3898 15.9049C55.396 15.8428 55.3991 15.7248 55.3991 15.5509C55.3991 15.377 55.396 15.2591 55.3898 15.197C55.3712 14.7312 55.247 14.3742 55.0172 14.1258C54.7937 13.8774 54.4863 13.7532 54.0951 13.7532C53.7039 13.7532 53.3934 13.8774 53.1637 14.1258C52.9339 14.3742 52.8128 14.7312 52.8004 15.197L52.7911 15.5509L52.8004 15.9049C52.8128 16.3706 52.9339 16.7276 53.1637 16.976C53.3934 17.2244 53.7039 17.3486 54.0951 17.3486ZM58.6177 17.9727C58.537 17.9727 58.4749 17.954 58.4314 17.9168C58.3879 17.8795 58.3507 17.8205 58.3196 17.7398L56.997 13.4179L56.9784 13.3248C56.9784 13.2689 56.997 13.2223 57.0342 13.185C57.0777 13.1478 57.1243 13.1292 57.174 13.1292H57.5838C57.6459 13.1292 57.6956 13.1478 57.7328 13.185C57.7763 13.2161 57.8042 13.2502 57.8167 13.2875L58.8506 16.799L59.959 13.3248C59.9714 13.2751 59.9993 13.2316 60.0428 13.1944C60.0863 13.1509 60.1453 13.1292 60.2198 13.1292H60.5365C60.611 13.1292 60.67 13.1509 60.7135 13.1944C60.7569 13.2316 60.7849 13.2751 60.7973 13.3248L61.9057 16.799L62.9396 13.2875C62.9458 13.2564 62.9675 13.2223 63.0048 13.185C63.0483 13.1478 63.1011 13.1292 63.1631 13.1292H63.5823C63.632 13.1292 63.6754 13.1478 63.7127 13.185C63.75 13.2223 63.7686 13.2689 63.7686 13.3248L63.75 13.4179L62.4366 17.7398C62.4056 17.8205 62.3683 17.8795 62.3248 17.9168C62.2814 17.954 62.2162 17.9727 62.1292 17.9727H61.766C61.5983 17.9727 61.4959 17.895 61.4586 17.7398L60.3781 14.4052L59.2977 17.7398C59.248 17.895 59.1424 17.9727 58.981 17.9727H58.6177ZM65.0145 17.9727C64.9524 17.9727 64.8996 17.954 64.8561 17.9168C64.8189 17.8733 64.8002 17.8205 64.8002 17.7584V13.3434C64.8002 13.2813 64.8189 13.2316 64.8561 13.1944C64.8996 13.1509 64.9524 13.1292 65.0145 13.1292H65.4522C65.5143 13.1292 65.564 13.1509 65.6013 13.1944C65.6447 13.2316 65.6665 13.2813 65.6665 13.3434V13.7532C65.8466 13.5235 66.0577 13.3465 66.2999 13.2223C66.5482 13.0981 66.8556 13.036 67.222 13.036C67.8181 13.036 68.2807 13.2285 68.6098 13.6135C68.9452 13.9923 69.1128 14.4984 69.1128 15.1318V17.7584C69.1128 17.8205 69.0911 17.8733 69.0476 17.9168C69.0104 17.954 68.9607 17.9727 68.8986 17.9727H68.4329C68.3708 17.9727 68.318 17.954 68.2745 17.9168C68.2373 17.8733 68.2186 17.8205 68.2186 17.7584V15.1783C68.2186 14.7374 68.11 14.3959 67.8926 14.1537C67.6815 13.9116 67.3741 13.7905 66.9705 13.7905C66.5793 13.7905 66.2688 13.9147 66.039 14.1631C65.8093 14.4052 65.6944 14.7437 65.6944 15.1783V17.7584C65.6944 17.8205 65.6727 17.8733 65.6292 17.9168C65.592 17.954 65.5423 17.9727 65.4802 17.9727H65.0145ZM70.6725 17.9727C70.6104 17.9727 70.5576 17.954 70.5141 17.9168C70.4769 17.8733 70.4582 17.8205 70.4582 17.7584V11.5736C70.4582 11.5115 70.4769 11.4619 70.5141 11.4246C70.5576 11.3811 70.6104 11.3594 70.6725 11.3594H71.1103C71.1723 11.3594 71.222 11.3811 71.2593 11.4246C71.3028 11.4619 71.3245 11.5115 71.3245 11.5736V17.7584C71.3245 17.8205 71.3028 17.8733 71.2593 17.9168C71.222 17.954 71.1723 17.9727 71.1103 17.9727H70.6725ZM74.6978 18.0658C74.0148 18.0658 73.4839 17.8733 73.1051 17.4883C72.7325 17.1033 72.5338 16.591 72.5089 15.9514L72.4996 15.5509L72.5089 15.1504C72.5338 14.517 72.7356 14.0078 73.1144 13.6228C73.4932 13.2316 74.021 13.036 74.6978 13.036C75.3747 13.036 75.9025 13.2316 76.2813 13.6228C76.6601 14.0078 76.8619 14.517 76.8867 15.1504C76.8929 15.2187 76.896 15.3522 76.896 15.5509C76.896 15.7496 76.8929 15.8831 76.8867 15.9514C76.8619 16.591 76.6601 17.1033 76.2813 17.4883C75.9087 17.8733 75.3809 18.0658 74.6978 18.0658ZM74.6978 17.3486C75.089 17.3486 75.3964 17.2244 75.62 16.976C75.8497 16.7276 75.9739 16.3706 75.9925 15.9049C75.9988 15.8428 76.0019 15.7248 76.0019 15.5509C76.0019 15.377 75.9988 15.2591 75.9925 15.197C75.9739 14.7312 75.8497 14.3742 75.62 14.1258C75.3964 13.8774 75.089 13.7532 74.6978 13.7532C74.3066 13.7532 73.9961 13.8774 73.7664 14.1258C73.5366 14.3742 73.4155 14.7312 73.4031 15.197L73.3938 15.5509L73.4031 15.9049C73.4155 16.3706 73.5366 16.7276 73.7664 16.976C73.9961 17.2244 74.3066 17.3486 74.6978 17.3486ZM79.413 18.0658C79.1087 18.0658 78.8262 18.0037 78.5654 17.8795C78.3046 17.7553 78.0965 17.5877 77.9413 17.3765C77.7923 17.1592 77.7177 16.9201 77.7177 16.6593C77.7177 16.2495 77.8854 15.9142 78.2207 15.6534C78.5623 15.3863 79.0218 15.2125 79.5993 15.1318L80.9871 14.9362V14.666C80.9871 14.0327 80.6239 13.716 79.8973 13.716C79.6241 13.716 79.4006 13.775 79.2267 13.8929C79.0528 14.0047 78.9224 14.1382 78.8355 14.2935C78.8169 14.3493 78.792 14.3897 78.761 14.4145C78.7361 14.4394 78.6989 14.4518 78.6492 14.4518H78.2487C78.1928 14.4518 78.1431 14.4332 78.0996 14.3959C78.0624 14.3524 78.0438 14.3028 78.0438 14.2469C78.05 14.0979 78.1183 13.9302 78.2487 13.7439C78.3853 13.5514 78.5933 13.3868 78.8727 13.2502C79.1522 13.1074 79.4968 13.036 79.9066 13.036C80.6021 13.036 81.102 13.2006 81.4063 13.5297C81.7105 13.8526 81.8627 14.2562 81.8627 14.7405V17.7584C81.8627 17.8205 81.8409 17.8733 81.7975 17.9168C81.7602 17.954 81.7105 17.9727 81.6484 17.9727H81.22C81.1579 17.9727 81.1051 17.954 81.0616 17.9168C81.0244 17.8733 81.0057 17.8205 81.0057 17.7584V17.3579C80.8691 17.5566 80.6704 17.7243 80.4096 17.8609C80.1488 17.9975 79.8166 18.0658 79.413 18.0658ZM79.6086 17.3672C80.0122 17.3672 80.3413 17.2368 80.5959 16.976C80.8567 16.709 80.9871 16.3271 80.9871 15.8303V15.5695L79.9066 15.7279C79.4658 15.79 79.1335 15.8955 78.91 16.0446C78.6865 16.1874 78.5747 16.3706 78.5747 16.5941C78.5747 16.8425 78.6771 17.035 78.8821 17.1716C79.087 17.302 79.3291 17.3672 79.6086 17.3672ZM84.9714 18.0658C84.3256 18.0658 83.8382 17.8547 83.5091 17.4324C83.18 17.0102 83.0061 16.4761 82.9875 15.8303L82.9781 15.5509L82.9875 15.2715C83.0061 14.6319 83.18 14.101 83.5091 13.6787C83.8382 13.2502 84.3256 13.036 84.9714 13.036C85.611 13.036 86.114 13.2627 86.4804 13.716V11.5736C86.4804 11.5115 86.499 11.4619 86.5363 11.4246C86.5797 11.3811 86.6325 11.3594 86.6946 11.3594H87.1417C87.2038 11.3594 87.2535 11.3811 87.2907 11.4246C87.3342 11.4619 87.3559 11.5115 87.3559 11.5736V17.7584C87.3559 17.8205 87.3342 17.8733 87.2907 17.9168C87.2535 17.954 87.2038 17.9727 87.1417 17.9727H86.7226C86.6605 17.9727 86.6077 17.954 86.5642 17.9168C86.5269 17.8733 86.5083 17.8205 86.5083 17.7584V17.3672C86.1482 17.8329 85.6359 18.0658 84.9714 18.0658ZM85.167 17.3113C85.5955 17.3113 85.9153 17.1716 86.1264 16.8922C86.3438 16.6065 86.4617 16.2681 86.4804 15.8769C86.4866 15.8086 86.4897 15.6906 86.4897 15.523C86.4897 15.3491 86.4866 15.228 86.4804 15.1597C86.468 14.7933 86.35 14.4735 86.1264 14.2003C85.9029 13.9271 85.5831 13.7905 85.167 13.7905C84.7262 13.7905 84.4033 13.9271 84.1983 14.2003C83.9996 14.4735 83.891 14.8337 83.8723 15.2808L83.863 15.5509C83.863 16.7245 84.2977 17.3113 85.167 17.3113ZM93.0083 18.0658C92.3253 18.0658 91.7944 17.8733 91.4156 17.4883C91.043 17.1033 90.8443 16.591 90.8194 15.9514L90.8101 15.5509L90.8194 15.1504C90.8443 14.517 91.0461 14.0078 91.4249 13.6228C91.8037 13.2316 92.3315 13.036 93.0083 13.036C93.6852 13.036 94.213 13.2316 94.5918 13.6228C94.9706 14.0078 95.1724 14.517 95.1972 15.1504C95.2034 15.2187 95.2065 15.3522 95.2065 15.5509C95.2065 15.7496 95.2034 15.8831 95.1972 15.9514C95.1724 16.591 94.9706 17.1033 94.5918 17.4883C94.2192 17.8733 93.6914 18.0658 93.0083 18.0658ZM93.0083 17.3486C93.3995 17.3486 93.7069 17.2244 93.9305 16.976C94.1602 16.7276 94.2844 16.3706 94.303 15.9049C94.3093 15.8428 94.3124 15.7248 94.3124 15.5509C94.3124 15.377 94.3093 15.2591 94.303 15.197C94.2844 14.7312 94.1602 14.3742 93.9305 14.1258C93.7069 13.8774 93.3995 13.7532 93.0083 13.7532C92.6171 13.7532 92.3067 13.8774 92.0769 14.1258C91.8471 14.3742 91.7261 14.7312 91.7136 15.197L91.7043 15.5509L91.7136 15.9049C91.7261 16.3706 91.8471 16.7276 92.0769 16.976C92.3067 17.2244 92.6171 17.3486 93.0083 17.3486ZM96.5871 17.9727C96.525 17.9727 96.4722 17.954 96.4288 17.9168C96.3915 17.8733 96.3729 17.8205 96.3729 17.7584V13.3434C96.3729 13.2813 96.3915 13.2316 96.4288 13.1944C96.4722 13.1509 96.525 13.1292 96.5871 13.1292H97.0249C97.087 13.1292 97.1367 13.1509 97.1739 13.1944C97.2174 13.2316 97.2391 13.2813 97.2391 13.3434V13.7532C97.4192 13.5235 97.6303 13.3465 97.8725 13.2223C98.1209 13.0981 98.4283 13.036 98.7946 13.036C99.3908 13.036 99.8534 13.2285 100.182 13.6135C100.518 13.9923 100.685 14.4984 100.685 15.1318V17.7584C100.685 17.8205 100.664 17.8733 100.62 17.9168C100.583 17.954 100.533 17.9727 100.471 17.9727H100.006C99.9434 17.9727 99.8906 17.954 99.8472 17.9168C99.8099 17.8733 99.7913 17.8205 99.7913 17.7584V15.1783C99.7913 14.7374 99.6826 14.3959 99.4653 14.1537C99.2542 13.9116 98.9468 13.7905 98.5432 13.7905C98.1519 13.7905 97.8415 13.9147 97.6117 14.1631C97.382 14.4052 97.2671 14.7437 97.2671 15.1783V17.7584C97.2671 17.8205 97.2453 17.8733 97.2019 17.9168C97.1646 17.954 97.1149 17.9727 97.0528 17.9727H96.5871ZM105.995 17.9727C105.014 17.9727 104.524 17.4262 104.524 16.3333V13.8743H103.797C103.735 13.8743 103.682 13.8557 103.639 13.8184C103.602 13.775 103.583 13.7222 103.583 13.6601V13.3434C103.583 13.2813 103.602 13.2316 103.639 13.1944C103.682 13.1509 103.735 13.1292 103.797 13.1292H104.524V11.5736C104.524 11.5115 104.542 11.4619 104.58 11.4246C104.623 11.3811 104.676 11.3594 104.738 11.3594H105.176C105.238 11.3594 105.288 11.3811 105.325 11.4246C105.368 11.4619 105.39 11.5115 105.39 11.5736V13.1292H106.545C106.607 13.1292 106.657 13.1509 106.694 13.1944C106.737 13.2316 106.759 13.2813 106.759 13.3434V13.6601C106.759 13.7222 106.737 13.775 106.694 13.8184C106.657 13.8557 106.607 13.8743 106.545 13.8743H105.39V16.2681C105.39 16.5786 105.443 16.8146 105.548 16.976C105.654 17.1313 105.828 17.2089 106.07 17.2089H106.638C106.7 17.2089 106.75 17.2306 106.787 17.2741C106.831 17.3113 106.852 17.361 106.852 17.4231V17.7584C106.852 17.8205 106.831 17.8733 106.787 17.9168C106.75 17.954 106.7 17.9727 106.638 17.9727H105.995ZM107.967 17.9727C107.904 17.9727 107.852 17.954 107.808 17.9168C107.771 17.8733 107.752 17.8205 107.752 17.7584V11.5736C107.752 11.5115 107.771 11.4619 107.808 11.4246C107.852 11.3811 107.904 11.3594 107.967 11.3594H108.432C108.494 11.3594 108.544 11.3811 108.581 11.4246C108.625 11.4619 108.647 11.5115 108.647 11.5736V13.7439C108.827 13.5141 109.038 13.3403 109.28 13.2223C109.522 13.0981 109.823 13.036 110.183 13.036C110.78 13.036 111.242 13.2285 111.571 13.6135C111.907 13.9923 112.074 14.4984 112.074 15.1318V17.7584C112.074 17.8205 112.053 17.8733 112.009 17.9168C111.972 17.954 111.922 17.9727 111.86 17.9727H111.394C111.332 17.9727 111.279 17.954 111.236 17.9168C111.199 17.8733 111.18 17.8205 111.18 17.7584V15.1783C111.18 14.7374 111.071 14.3959 110.854 14.1537C110.643 13.9116 110.336 13.7905 109.932 13.7905C109.541 13.7905 109.227 13.9147 108.991 14.1631C108.761 14.4052 108.647 14.7437 108.647 15.1783V17.7584C108.647 17.8205 108.625 17.8733 108.581 17.9168C108.544 17.954 108.494 17.9727 108.432 17.9727H107.967ZM115.356 18.0658C114.717 18.0658 114.205 17.8702 113.82 17.479C113.441 17.0816 113.233 16.5413 113.195 15.8583L113.186 15.5416L113.195 15.2342C113.239 14.5636 113.45 14.0295 113.829 13.6321C114.214 13.2347 114.72 13.036 115.347 13.036C116.036 13.036 116.57 13.2564 116.949 13.6973C117.328 14.132 117.517 14.7219 117.517 15.4671V15.6254C117.517 15.6875 117.496 15.7403 117.452 15.7838C117.415 15.821 117.365 15.8397 117.303 15.8397H114.08V15.9235C114.099 16.3271 114.22 16.6717 114.444 16.9574C114.673 17.2368 114.975 17.3765 115.347 17.3765C115.633 17.3765 115.866 17.3206 116.046 17.2089C116.232 17.0909 116.369 16.9698 116.456 16.8456C116.511 16.7711 116.552 16.7276 116.577 16.7152C116.608 16.6966 116.66 16.6873 116.735 16.6873H117.191C117.247 16.6873 117.294 16.7028 117.331 16.7338C117.368 16.7649 117.387 16.8084 117.387 16.8642C117.387 17.0009 117.3 17.1654 117.126 17.3579C116.959 17.5504 116.719 17.7181 116.409 17.8609C116.105 17.9975 115.754 18.0658 115.356 18.0658ZM116.633 15.197V15.169C116.633 14.7405 116.515 14.3928 116.279 14.1258C116.049 13.8526 115.738 13.716 115.347 13.716C114.956 13.716 114.645 13.8526 114.416 14.1258C114.192 14.3928 114.08 14.7405 114.08 15.169V15.197H116.633Z" fill="white"/>
<path d="M45.6151 35.0898C45.5096 35.0898 45.4198 35.0529 45.3459 34.979C45.272 34.9051 45.2351 34.8154 45.2351 34.7098V24.4015C45.2351 24.2854 45.2668 24.1904 45.3301 24.1165C45.404 24.0426 45.499 24.0057 45.6151 24.0057H49.8588C51.1255 24.0057 52.1231 24.3065 52.8515 24.9082C53.5799 25.4994 53.9441 26.3703 53.9441 27.5209C53.9441 28.6716 53.5799 29.5425 52.8515 30.1336C52.1337 30.7142 51.1361 31.0045 49.8588 31.0045H47.4994V34.7098C47.4994 34.8154 47.4625 34.9051 47.3886 34.979C47.3253 35.0529 47.2355 35.0898 47.1194 35.0898H45.6151ZM49.7796 29.2469C50.3919 29.2469 50.8616 29.1044 51.1889 28.8194C51.5161 28.5238 51.6798 28.091 51.6798 27.5209C51.6798 26.972 51.5214 26.5445 51.2047 26.2383C50.888 25.9216 50.413 25.7633 49.7796 25.7633H47.4678V29.2469H49.7796ZM55.8787 35.0898C55.7732 35.0898 55.6835 35.0529 55.6096 34.979C55.5357 34.9051 55.4987 34.8154 55.4987 34.7098V24.2274C55.4987 24.1112 55.5357 24.0215 55.6096 23.9582C55.6835 23.8843 55.7732 23.8473 55.8787 23.8473H57.193C57.3091 23.8473 57.3989 23.8843 57.4622 23.9582C57.5361 24.0215 57.573 24.1112 57.573 24.2274V34.7098C57.573 34.8154 57.5361 34.9051 57.4622 34.979C57.3989 35.0529 57.3091 35.0898 57.193 35.0898H55.8787ZM62.0645 35.2482C61.5261 35.2482 61.03 35.1426 60.576 34.9315C60.1327 34.7098 59.779 34.4142 59.5151 34.0448C59.2618 33.6753 59.1351 33.2689 59.1351 32.8255C59.1351 32.1077 59.4254 31.5271 60.006 31.0837C60.5866 30.6403 61.3836 30.3395 62.397 30.1811L64.5663 29.8644V29.5319C64.5663 29.0674 64.4502 28.7191 64.218 28.4868C63.9857 28.2546 63.611 28.1385 63.0937 28.1385C62.7454 28.1385 62.4603 28.2071 62.2387 28.3443C62.0275 28.471 61.8586 28.5977 61.732 28.7244C61.6053 28.8616 61.5208 28.9513 61.4786 28.9935C61.4364 29.1202 61.3572 29.1836 61.2411 29.1836H60.0218C59.9268 29.1836 59.8424 29.1519 59.7685 29.0886C59.7051 29.0252 59.6735 28.9408 59.6735 28.8352C59.684 28.5713 59.8107 28.2704 60.0535 27.9326C60.3069 27.5948 60.6922 27.3045 61.2094 27.0617C61.7267 26.8189 62.3601 26.6975 63.1096 26.6975C64.3552 26.6975 65.2631 26.9773 65.8331 27.5368C66.4031 28.0963 66.6882 28.8299 66.6882 29.7378V34.7098C66.6882 34.8154 66.6512 34.9051 66.5773 34.979C66.514 35.0529 66.4243 35.0898 66.3081 35.0898H65.0255C64.92 35.0898 64.8303 35.0529 64.7564 34.979C64.6825 34.9051 64.6455 34.8154 64.6455 34.7098V34.0923C64.4133 34.4301 64.0808 34.7098 63.6479 34.9315C63.2257 35.1426 62.6979 35.2482 62.0645 35.2482ZM62.6029 33.7439C63.1835 33.7439 63.6585 33.5539 64.028 33.1739C64.3974 32.7938 64.5822 32.2396 64.5822 31.5112V31.1787L62.9987 31.4321C62.3865 31.5271 61.922 31.6801 61.6053 31.8913C61.2992 32.1024 61.1461 32.361 61.1461 32.6672C61.1461 33.005 61.2886 33.2689 61.5736 33.4589C61.8586 33.6489 62.2017 33.7439 62.6029 33.7439ZM69.9915 38.0984C69.9071 38.0984 69.8332 38.0667 69.7698 38.0034C69.7065 37.9401 69.6748 37.8662 69.6748 37.7817C69.6748 37.6867 69.6959 37.6023 69.7382 37.5284L70.9733 34.599L67.933 27.4259C67.8908 27.3309 67.8697 27.257 67.8697 27.2042C67.8803 27.1092 67.9172 27.0301 67.9805 26.9667C68.0439 26.8928 68.1231 26.8559 68.2181 26.8559H69.5007C69.7012 26.8559 69.8437 26.9562 69.9282 27.1567L72.0342 32.3346L74.2035 27.1567C74.288 26.9562 74.4305 26.8559 74.631 26.8559H75.8978C75.9823 26.8559 76.0562 26.8876 76.1195 26.9509C76.1934 27.0142 76.2303 27.0881 76.2303 27.1726C76.2303 27.2465 76.2092 27.3309 76.167 27.4259L71.6858 37.7975C71.5908 37.9981 71.443 38.0984 71.2425 38.0984H69.9915ZM84.8343 35.2482C83.8948 35.2482 83.0872 35.1057 82.4116 34.8207C81.736 34.5356 81.224 34.1609 80.8757 33.6964C80.5273 33.2319 80.3426 32.7305 80.3215 32.1921C80.3215 32.0971 80.3531 32.0179 80.4165 31.9546C80.4798 31.8913 80.559 31.8596 80.654 31.8596H82.0633C82.1899 31.8596 82.2849 31.886 82.3483 31.9388C82.4222 31.981 82.4908 32.0549 82.5541 32.1605C82.6597 32.5194 82.9025 32.8202 83.2825 33.063C83.6625 33.3058 84.1798 33.4272 84.8343 33.4272C85.5838 33.4272 86.1486 33.3058 86.5286 33.063C86.9086 32.8097 87.0986 32.4613 87.0986 32.0179C87.0986 31.7224 86.9984 31.4796 86.7978 31.2896C86.6078 31.0995 86.3175 30.9359 85.9269 30.7987C85.5469 30.6615 84.9768 30.4925 84.2168 30.292C82.9711 29.9964 82.058 29.6058 81.4774 29.1202C80.9073 28.6241 80.6223 27.9221 80.6223 27.0142C80.6223 26.402 80.7859 25.8583 81.1132 25.3833C81.451 24.9082 81.9313 24.5335 82.5541 24.259C83.1875 23.9846 83.9212 23.8473 84.7551 23.8473C85.6208 23.8473 86.3703 24.0004 87.0036 24.3065C87.637 24.6127 88.1173 24.998 88.4446 25.4624C88.7824 25.9164 88.9618 26.3703 88.983 26.8242C88.983 26.9192 88.9513 26.9984 88.8879 27.0617C88.8246 27.1251 88.7454 27.1567 88.6504 27.1567H87.1778C86.9561 27.1567 86.8031 27.0565 86.7186 26.8559C86.6553 26.5181 86.4441 26.2383 86.0852 26.0167C85.7263 25.7844 85.2829 25.6683 84.7551 25.6683C84.164 25.6683 83.6995 25.7791 83.3617 26.0008C83.0239 26.2225 82.855 26.5445 82.855 26.9667C82.855 27.2623 82.9394 27.5051 83.1083 27.6951C83.2772 27.8851 83.5411 28.054 83.9001 28.2018C84.2695 28.3496 84.7974 28.5132 85.4835 28.6927C86.4125 28.9038 87.1514 29.1413 87.7004 29.4052C88.2598 29.6692 88.6715 30.0017 88.9354 30.4028C89.1994 30.804 89.3313 31.3159 89.3313 31.9388C89.3313 32.6144 89.1413 33.2055 88.7613 33.7122C88.3918 34.2084 87.864 34.5884 87.1778 34.8523C86.5022 35.1162 85.721 35.2482 84.8343 35.2482ZM94.6771 35.0898C93.7164 35.0898 92.9933 34.8418 92.5077 34.3456C92.0327 33.8389 91.7952 33.1 91.7952 32.1288V28.5343H90.5443C90.4387 28.5343 90.349 28.4974 90.2751 28.4235C90.2012 28.3391 90.1642 28.244 90.1642 28.1385V27.2359C90.1642 27.1303 90.2012 27.0406 90.2751 26.9667C90.349 26.8928 90.4387 26.8559 90.5443 26.8559H91.7952V24.2274C91.7952 24.1112 91.8321 24.0215 91.906 23.9582C91.9799 23.8843 92.0697 23.8473 92.1752 23.8473H93.4578C93.5739 23.8473 93.6637 23.8843 93.727 23.9582C93.8009 24.0215 93.8378 24.1112 93.8378 24.2274V26.8559H95.8172C95.9333 26.8559 96.023 26.8928 96.0864 26.9667C96.1602 27.0301 96.1972 27.1198 96.1972 27.2359V28.1385C96.1972 28.2546 96.1602 28.3496 96.0864 28.4235C96.0125 28.4974 95.9227 28.5343 95.8172 28.5343H93.8378V31.9704C93.8378 32.4244 93.917 32.7674 94.0754 32.9997C94.2337 33.2319 94.4976 33.348 94.8671 33.348H95.9597C96.0652 33.348 96.155 33.385 96.2289 33.4589C96.3028 33.5328 96.3397 33.6225 96.3397 33.7281V34.7098C96.3397 34.8154 96.3028 34.9051 96.2289 34.979C96.1655 35.0529 96.0758 35.0898 95.9597 35.0898H94.6771ZM101.386 35.2482C100.151 35.2482 99.1959 34.9315 98.5203 34.2981C97.8447 33.6542 97.4805 32.778 97.4277 31.6696L97.4119 30.9729L97.4277 30.2761C97.4805 29.1783 97.85 28.3074 98.5361 27.6634C99.2223 27.0195 100.172 26.6975 101.386 26.6975C102.6 26.6975 103.55 27.0195 104.237 27.6634C104.923 28.3074 105.292 29.1783 105.345 30.2761C105.356 30.4028 105.361 30.6351 105.361 30.9729C105.361 31.3107 105.356 31.5429 105.345 31.6696C105.292 32.778 104.928 33.6542 104.252 34.2981C103.577 34.9315 102.621 35.2482 101.386 35.2482ZM101.386 33.6806C101.946 33.6806 102.379 33.5064 102.685 33.158C102.991 32.7991 103.16 32.2766 103.191 31.5904C103.202 31.4848 103.207 31.279 103.207 30.9729C103.207 30.6667 103.202 30.4609 103.191 30.3553C103.16 29.6692 102.991 29.1519 102.685 28.8035C102.379 28.4446 101.946 28.2652 101.386 28.2652C100.827 28.2652 100.394 28.4446 100.088 28.8035C99.7818 29.1519 99.6129 29.6692 99.5812 30.3553L99.5654 30.9729L99.5812 31.5904C99.6129 32.2766 99.7818 32.7991 100.088 33.158C100.394 33.5064 100.827 33.6806 101.386 33.6806ZM107.495 35.0898C107.39 35.0898 107.3 35.0529 107.226 34.979C107.152 34.9051 107.115 34.8154 107.115 34.7098V27.2517C107.115 27.1462 107.152 27.0565 107.226 26.9826C107.3 26.8981 107.39 26.8559 107.495 26.8559H108.778C108.894 26.8559 108.989 26.8928 109.063 26.9667C109.137 27.0406 109.174 27.1356 109.174 27.2517V27.901C109.427 27.5632 109.744 27.3045 110.124 27.1251C110.514 26.9456 110.958 26.8559 111.454 26.8559H112.103C112.219 26.8559 112.309 26.8928 112.372 26.9667C112.446 27.0301 112.483 27.1198 112.483 27.2359V28.376C112.483 28.4816 112.446 28.5713 112.372 28.6452C112.309 28.7191 112.219 28.756 112.103 28.756H110.868C110.372 28.756 109.981 28.8985 109.696 29.1836C109.411 29.4686 109.269 29.8592 109.269 30.3553V34.7098C109.269 34.8154 109.232 34.9051 109.158 34.979C109.084 35.0529 108.989 35.0898 108.873 35.0898H107.495ZM117.157 35.2482C115.985 35.2482 115.051 34.9104 114.354 34.2348C113.668 33.5486 113.304 32.588 113.262 31.3529L113.246 30.957L113.262 30.5612C113.314 29.3577 113.684 28.4129 114.37 27.7268C115.067 27.0406 115.996 26.6975 117.157 26.6975C118.402 26.6975 119.363 27.0776 120.039 27.8376C120.725 28.5977 121.068 29.6111 121.068 30.8779V31.2104C121.068 31.3159 121.031 31.4057 120.957 31.4796C120.883 31.5535 120.788 31.5904 120.672 31.5904H115.415V31.7171C115.436 32.2977 115.594 32.7886 115.89 33.1897C116.196 33.5803 116.613 33.7756 117.141 33.7756C117.764 33.7756 118.265 33.5328 118.645 33.0472C118.74 32.9311 118.814 32.8572 118.867 32.8255C118.93 32.7938 119.02 32.778 119.136 32.778H120.498C120.593 32.778 120.672 32.8097 120.735 32.873C120.809 32.9258 120.846 32.9944 120.846 33.0789C120.846 33.3322 120.693 33.6331 120.387 33.9814C120.091 34.3192 119.664 34.6148 119.104 34.8682C118.545 35.1215 117.896 35.2482 117.157 35.2482ZM118.914 30.2603V30.2128C118.914 29.59 118.756 29.0886 118.439 28.7085C118.133 28.3285 117.706 28.1385 117.157 28.1385C116.608 28.1385 116.18 28.3285 115.874 28.7085C115.568 29.0886 115.415 29.59 115.415 30.2128V30.2603H118.914Z" fill="white"/>
<path d="M28.3424 18.0104L16.1897 11.0646C16.037 10.9759 15.8448 10.9808 15.6971 11.0695C15.5443 11.1582 15.4507 11.3158 15.4507 11.4932C15.4507 11.4932 15.4557 12.1335 15.4606 13.1877L24.3128 22.0399L28.3424 18.0104Z" fill="url(#paint0_linear_477_8760)"/>
<path d="M15.4606 13.1875C15.4753 16.9905 15.5197 26.222 15.5394 30.818L24.3177 22.0397L15.4606 13.1875Z" fill="url(#paint1_linear_477_8760)"/>
<path d="M35.298 21.9851L28.3423 18.0098L24.3079 22.0393L28.8596 26.591L35.3029 22.8374C35.4556 22.7487 35.5492 22.5861 35.5492 22.4137C35.5492 22.2364 35.4507 22.0738 35.298 21.9851Z" fill="url(#paint2_linear_477_8760)"/>
<path d="M15.5345 30.8178C15.5443 32.4582 15.5493 33.5075 15.5493 33.5075C15.5493 33.6848 15.6429 33.8474 15.7956 33.9311C15.9483 34.0198 16.1355 34.0198 16.2882 33.9311L28.8645 26.5962L24.3128 22.0444L15.5345 30.8178Z" fill="url(#paint3_linear_477_8760)"/>
<defs>
<linearGradient id="paint0_linear_477_8760" x1="15.4507" y1="16.5224" x2="28.3446" y2="16.5224" gradientUnits="userSpaceOnUse">
<stop stop-color="#63BE6B"/>
<stop offset="0.506" stop-color="#5BBC6A"/>
<stop offset="1" stop-color="#4AB96A"/>
</linearGradient>
<linearGradient id="paint1_linear_477_8760" x1="15.4582" y1="22.0049" x2="24.3126" y2="22.0049" gradientUnits="userSpaceOnUse">
<stop stop-color="#3EC6F2"/>
<stop offset="1" stop-color="#45AFE3"/>
</linearGradient>
<linearGradient id="paint2_linear_477_8760" x1="24.3126" y1="22.3036" x2="35.5481" y2="22.3036" gradientUnits="userSpaceOnUse">
<stop stop-color="#FAA51A"/>
<stop offset="0.387" stop-color="#FAB716"/>
<stop offset="0.741" stop-color="#FAC412"/>
<stop offset="1" stop-color="#FAC80F"/>
</linearGradient>
<linearGradient id="paint3_linear_477_8760" x1="15.5367" y1="28.0208" x2="28.8643" y2="28.0208" gradientUnits="userSpaceOnUse">
<stop stop-color="#EC3B50"/>
<stop offset="1" stop-color="#E7515B"/>
</linearGradient>
</defs>
</svg>
