<svg width="18" height="23" viewBox="0 0 18 23" fill="none" xmlns="http://www.w3.org/2000/svg">
<path d="M16.5982 22.5882C16.1278 22.5882 15.7465 22.2069 15.7465 21.7365C15.7465 18.4023 13.0339 15.6897 9.6996 15.6897H8.42209C5.08784 15.6897 2.37522 18.4023 2.37522 21.7365C2.37522 22.2069 1.99393 22.5882 1.52355 22.5882C1.05317 22.5882 0.671875 22.2069 0.671875 21.7365C0.671875 17.4631 4.14861 13.9863 8.42209 13.9863H9.6996C13.9731 13.9863 17.4498 17.4631 17.4498 21.7365C17.4498 22.2069 17.0685 22.5882 16.5982 22.5882Z" fill="white"/>
<path d="M8.9756 12.2827C5.80571 12.2827 3.22681 9.70383 3.22681 6.53395C3.22681 3.36406 5.80571 0.785156 8.9756 0.785156C12.1455 0.785156 14.7244 3.36406 14.7244 6.53395C14.7244 9.70383 12.1455 12.2827 8.9756 12.2827ZM8.9756 2.4885C6.74494 2.4885 4.93015 4.30329 4.93015 6.53395C4.93015 8.7646 6.74494 10.5794 8.9756 10.5794C11.2063 10.5794 13.021 8.7646 13.021 6.53395C13.021 4.30329 11.2063 2.4885 8.9756 2.4885Z" fill="white"/>
</svg>
