<svg width="10" height="13" viewBox="0 0 10 13" fill="none" xmlns="http://www.w3.org/2000/svg">
<g opacity="0.6">
<path d="M8.87409 12.6543C8.612 12.6543 8.39954 12.4418 8.39954 12.1797C8.39954 10.3219 6.88808 8.81043 5.03023 8.81043H4.31841C2.46057 8.81043 0.949101 10.3219 0.949101 12.1797C0.949101 12.4418 0.736645 12.6543 0.47455 12.6543C0.212456 12.6543 0 12.4418 0 12.1797C0 9.79856 1.93723 7.86133 4.31841 7.86133H5.03023C7.41141 7.86133 9.34864 9.79856 9.34864 12.1797C9.34864 12.4418 9.13619 12.6543 8.87409 12.6543Z" fill="#5F04BA"/>
<path d="M4.62631 6.91229C2.86006 6.91229 1.4231 5.47533 1.4231 3.70907C1.4231 1.94282 2.86006 0.505859 4.62631 0.505859C6.39256 0.505859 7.82953 1.94282 7.82953 3.70907C7.82953 5.47533 6.39256 6.91229 4.62631 6.91229ZM4.62631 1.45496C3.38339 1.45496 2.3722 2.46616 2.3722 3.70907C2.3722 4.95199 3.38339 5.96319 4.62631 5.96319C5.86923 5.96319 6.88042 4.95199 6.88042 3.70907C6.88042 2.46616 5.86923 1.45496 4.62631 1.45496Z" fill="#5F04BA"/>
<path d="M0.0471047 11.9608C0.123779 10.1717 1.59651 8.76074 3.38723 8.76074H5.89644C7.68716 8.76074 9.15989 10.1717 9.23656 11.9608L9.24168 12.0801C9.25525 12.3969 9.00208 12.6611 8.68499 12.6611H0.59868C0.281586 12.6611 0.028415 12.3969 0.0419922 12.0801L0.0471047 11.9608Z" fill="#5F04BA"/>
<circle cx="4.64146" cy="3.41197" r="2.78599" fill="#5F04BA"/>
</g>
</svg>
