<svg width="21" height="22" viewBox="0 0 21 22" fill="none" xmlns="http://www.w3.org/2000/svg">
<path d="M10.5 0.736328C4.70113 0.736328 0 5.43746 0 11.2363C0 17.0352 4.70113 21.7363 10.5 21.7363C16.2989 21.7363 21 17.0352 21 11.2363C21 5.43746 16.2989 0.736328 10.5 0.736328ZM10.5 19.9863C5.66762 19.9863 1.75001 16.0687 1.75001 11.2363C1.75001 6.40395 5.66762 2.48634 10.5 2.48634C15.3324 2.48634 19.25 6.40395 19.25 11.2363C19.25 16.0687 15.3324 19.9863 10.5 19.9863Z" fill="#5F04BA"/>
<path d="M15.7504 10.3613H7.3628L9.36908 8.35504C9.71078 8.01334 9.71078 7.4593 9.36908 7.1176C9.02738 6.7759 8.47334 6.7759 8.13164 7.1176L4.63165 10.6176C4.63132 10.6179 4.63108 10.6182 4.63079 10.6185C4.61077 10.6386 4.59174 10.6597 4.5737 10.6817C4.56533 10.6919 4.55811 10.7026 4.55028 10.713C4.54101 10.7254 4.53137 10.7376 4.52275 10.7505C4.51439 10.7629 4.50717 10.7759 4.49954 10.7887C4.49257 10.8004 4.48523 10.8118 4.47879 10.8239C4.47181 10.8369 4.46587 10.8504 4.45959 10.8637C4.45364 10.8762 4.44741 10.8886 4.44204 10.9015C4.4367 10.9144 4.43236 10.9276 4.42768 10.9407C4.42272 10.9545 4.41743 10.9681 4.41316 10.9823C4.40918 10.9954 4.40627 11.0088 4.40295 11.022C4.3993 11.0364 4.39528 11.0506 4.39237 11.0653C4.38933 11.0807 4.38753 11.0962 4.38527 11.1116C4.38347 11.1244 4.381 11.1369 4.37973 11.1499C4.37407 11.2073 4.37407 11.2652 4.37973 11.3226C4.381 11.3355 4.38342 11.3481 4.38527 11.3609C4.38749 11.3763 4.38929 11.3919 4.39237 11.4072C4.39528 11.4219 4.3993 11.4361 4.40295 11.4505C4.40627 11.4638 4.40918 11.4771 4.41316 11.4902C4.41743 11.5043 4.42272 11.518 4.42768 11.5318C4.4324 11.5449 4.4367 11.5581 4.44204 11.571C4.44737 11.5839 4.45364 11.5963 4.45959 11.6088C4.46587 11.6221 4.47177 11.6356 4.47879 11.6486C4.48523 11.6607 4.49257 11.6721 4.49954 11.6838C4.50717 11.6966 4.51443 11.7095 4.52275 11.722C4.53141 11.7349 4.54101 11.7471 4.55028 11.7595C4.55811 11.7699 4.56537 11.7806 4.5737 11.7908C4.5917 11.8127 4.61073 11.8339 4.63079 11.854C4.63108 11.8543 4.63136 11.8546 4.63165 11.8549L8.13164 15.3549C8.47334 15.6966 9.02738 15.6966 9.36908 15.3549C9.71078 15.0132 9.71078 14.4591 9.36908 14.1174L7.3628 12.1112H15.7504C16.2336 12.1112 16.6254 11.7194 16.6254 11.2362C16.6254 10.7529 16.2336 10.3613 15.7504 10.3613Z" fill="#5F04BA"/>
</svg>
