<svg width="15" height="15" viewBox="0 0 15 15" fill="none" xmlns="http://www.w3.org/2000/svg">
<path d="M13.9607 13.6934L9.90046 9.63311C10.6706 8.68235 11.1341 7.47365 11.1341 6.15766C11.1341 3.10697 8.65217 0.625 5.60148 0.625C2.55079 0.625 0.0688477 3.10697 0.0688477 6.15766C0.0688477 9.20835 2.55082 11.6903 5.60151 11.6903C6.9175 11.6903 8.1262 11.2267 9.07695 10.4566L13.1372 14.5169C13.251 14.6306 13.4353 14.6306 13.5491 14.5169L13.9608 14.1052C14.0745 13.9915 14.0745 13.8071 13.9607 13.6934ZM5.60151 10.5255C3.19292 10.5255 1.23363 8.56625 1.23363 6.15766C1.23363 3.74907 3.19292 1.78978 5.60151 1.78978C8.0101 1.78978 9.96939 3.74907 9.96939 6.15766C9.96939 8.56625 8.0101 10.5255 5.60151 10.5255Z" fill="#5F04BA"/>
</svg>
