<svg width="13" height="12" viewBox="0 0 13 12" fill="none" xmlns="http://www.w3.org/2000/svg">
<g opacity="0.6" clip-path="url(#clip0_390:6972)">
<path d="M1.29654 5.01754L2.18831 4.90417C2.26183 4.67791 2.35243 4.45971 2.45821 4.25242L1.9075 3.54327C1.68455 3.25629 1.71064 2.8512 1.96537 2.60454L2.71246 1.85744C2.9615 1.60034 3.36659 1.57473 3.65404 1.7972L4.36224 2.34792C4.56953 2.24214 4.78773 2.15154 5.01447 2.07801L5.12784 1.18766C5.17053 0.830478 5.47364 0.561523 5.83272 0.561523H6.89526C7.25434 0.561523 7.55744 0.830478 7.60014 1.18624L7.7135 2.07801C7.94024 2.15154 8.15844 2.24166 8.36573 2.34792L9.07441 1.7972C9.36091 1.57473 9.766 1.60034 10.0131 1.85507L10.7602 2.60169C11.0173 2.8512 11.0434 3.25629 10.8205 3.54374L10.2698 4.25242C10.376 4.45971 10.4661 4.67791 10.5397 4.90417L11.43 5.01754C11.7872 5.06023 12.0562 5.36334 12.0562 5.72242V6.78496C12.0562 7.14404 11.7872 7.44715 11.4314 7.48984L10.5397 7.60321C10.4661 7.82947 10.3755 8.04767 10.2698 8.25496L10.8205 8.96411C11.0434 9.25109 11.0173 9.65618 10.7626 9.90284L10.0155 10.6499C9.766 10.9066 9.36139 10.9322 9.07393 10.7097L8.36526 10.159C8.15797 10.2652 7.93977 10.3558 7.7135 10.4289L7.60014 11.3188C7.55744 11.6769 7.25434 11.9459 6.89526 11.9459H5.83272C5.47364 11.9459 5.17053 11.6769 5.12784 11.3211L5.01447 10.4294C4.78821 10.3558 4.57001 10.2652 4.36272 10.1595L3.65357 10.7102C3.36659 10.9331 2.96149 10.907 2.71483 10.6523L1.96774 9.90521C1.71064 9.65571 1.68455 9.25109 1.9075 8.96364L2.45821 8.25496C2.35196 8.04767 2.26136 7.82947 2.18831 7.60321L1.29843 7.48984C0.941251 7.44715 0.672296 7.14404 0.672296 6.78496V5.72242C0.671822 5.36334 0.940776 5.06023 1.29654 5.01754ZM6.36399 8.62543C7.67176 8.62543 8.73572 7.56147 8.73572 6.25369C8.73572 4.94591 7.67176 3.88195 6.36399 3.88195C5.05621 3.88195 3.99225 4.94591 3.99225 6.25369C3.99225 7.56147 5.05621 8.62543 6.36399 8.62543Z" fill="#5F04BA"/>
</g>
<defs>
<clipPath id="clip0_390:6972">
<rect width="11.3843" height="11.3843" fill="white" transform="matrix(-1 0 0 1 12.0562 0.561523)"/>
</clipPath>
</defs>
</svg>
