<svg width="18" height="18" viewBox="0 0 18 18" fill="none" xmlns="http://www.w3.org/2000/svg">
<g opacity="0.6" clip-path="url(#clip0_602:1175)">
<path d="M16.6757 2.99995C16.6757 4.34619 15.5845 5.43755 14.2382 5.43755C12.892 5.43755 11.8008 4.34619 11.8008 2.99995C11.8008 1.65385 12.892 0.5625 14.2382 0.5625C15.5845 0.5625 16.6757 1.65385 16.6757 2.99995V2.99995Z" fill="#5F04BA"/>
<path d="M14.2382 6.00005C12.5837 6.00005 11.2383 4.6545 11.2383 2.99995C11.2383 1.34555 12.5837 0 14.2382 0C15.8928 0 17.2382 1.34555 17.2382 2.99995C17.2382 4.6545 15.8928 6.00005 14.2382 6.00005ZM14.2382 1.125C13.204 1.125 12.3633 1.96655 12.3633 2.99995C12.3633 4.03349 13.204 4.87505 14.2382 4.87505C15.2725 4.87505 16.1132 4.03349 16.1132 2.99995C16.1132 1.96655 15.2725 1.125 14.2382 1.125Z" fill="#5F04BA"/>
<path d="M16.6757 15.0001C16.6757 16.3462 15.5845 17.4375 14.2382 17.4375C12.892 17.4375 11.8008 16.3462 11.8008 15.0001C11.8008 13.6539 12.892 12.5625 14.2382 12.5625C15.5845 12.5625 16.6757 13.6539 16.6757 15.0001V15.0001Z" fill="#5F04BA"/>
<path d="M14.2382 18C12.5837 18 11.2383 16.6545 11.2383 15.0001C11.2383 13.3456 12.5837 12 14.2382 12C15.8928 12 17.2382 13.3456 17.2382 15.0001C17.2382 16.6545 15.8928 18 14.2382 18ZM14.2382 13.125C13.204 13.125 12.3633 13.9666 12.3633 15.0001C12.3633 16.0335 13.204 16.875 14.2382 16.875C15.2725 16.875 16.1132 16.0335 16.1132 15.0001C16.1132 13.9666 15.2725 13.125 14.2382 13.125V13.125Z" fill="#5F04BA"/>
<path d="M6.17583 8.99995C6.17583 10.3462 5.08447 11.4374 3.73824 11.4374C2.39214 11.4374 1.30078 10.3462 1.30078 8.99995C1.30078 7.65372 2.39214 6.5625 3.73824 6.5625C5.08447 6.5625 6.17583 7.65372 6.17583 8.99995Z" fill="#5F04BA"/>
<path d="M3.73824 11.9999C2.08383 11.9999 0.738281 10.6545 0.738281 8.99995C0.738281 7.34541 2.08383 6 3.73824 6C5.39278 6 6.73833 7.34541 6.73833 8.99995C6.73833 10.6545 5.39278 11.9999 3.73824 11.9999ZM3.73824 7.125C2.70401 7.125 1.86328 7.96642 1.86328 8.99995C1.86328 10.0335 2.70401 10.8749 3.73824 10.8749C4.7726 10.8749 5.61333 10.0335 5.61333 8.99995C5.61333 7.96642 4.7726 7.125 3.73824 7.125Z" fill="#5F04BA"/>
<path d="M5.50905 8.63984C5.24799 8.63984 4.99448 8.50402 4.85646 8.26109C4.6517 7.90183 4.77777 7.44357 5.13702 7.23798L12.0962 3.27055C12.4554 3.06428 12.9137 3.19035 13.1193 3.55097C13.324 3.91023 13.198 4.36849 12.8387 4.57407L5.87943 8.54151C5.76242 8.60825 5.63498 8.63984 5.50905 8.63984V8.63984Z" fill="#5F04BA"/>
<path d="M12.4674 14.8277C12.3414 14.8277 12.2139 14.7961 12.0969 14.7294L5.13765 10.7619C4.7784 10.5572 4.65247 10.0989 4.85723 9.73881C5.06116 9.37887 5.52011 9.25212 5.88019 9.45839L12.8395 13.4258C13.1987 13.6306 13.3246 14.0889 13.1199 14.4489C12.9812 14.6919 12.7277 14.8277 12.4674 14.8277V14.8277Z" fill="#5F04BA"/>
</g>
<defs>
<clipPath id="clip0_602:1175">
<rect width="18" height="18" fill="white"/>
</clipPath>
</defs>
</svg>
