<svg width="15" height="14" viewBox="0 0 15 14" fill="none" xmlns="http://www.w3.org/2000/svg">
<g opacity="0.6" clip-path="url(#clip0_556:915)">
<path d="M7.67022 7.00609C8.3445 7.00609 9.00364 6.80614 9.56429 6.43153C10.1249 6.05692 10.5619 5.52447 10.8199 4.90151C11.078 4.27856 11.1455 3.59307 11.0139 2.93175C10.8824 2.27042 10.5577 1.66295 10.0809 1.18616C9.60412 0.709375 8.99665 0.384677 8.33533 0.253131C7.674 0.121585 6.98852 0.189099 6.36556 0.447136C5.74261 0.705173 5.21016 1.14214 4.83555 1.70279C4.46093 2.26343 4.26099 2.92257 4.26099 3.59686C4.26189 4.50076 4.62136 5.36739 5.26052 6.00655C5.89968 6.64571 6.76631 7.00518 7.67022 7.00609ZM7.67022 1.32403C8.11974 1.32403 8.55917 1.45733 8.93293 1.70707C9.30669 1.95681 9.59801 2.31178 9.77003 2.72708C9.94206 3.14239 9.98706 3.59938 9.89937 4.04026C9.81167 4.48114 9.5952 4.88612 9.27735 5.20398C8.95949 5.52184 8.55451 5.73831 8.11362 5.826C7.67274 5.9137 7.21575 5.86869 6.80045 5.69667C6.38514 5.52464 6.03018 5.23333 5.78044 4.85957C5.5307 4.4858 5.3974 4.04638 5.3974 3.59686C5.3974 2.99407 5.63685 2.41596 6.06309 1.98973C6.48933 1.56349 7.06743 1.32403 7.67022 1.32403Z" fill="#5F04BA"/>
<path d="M7.67018 8.1425C6.31437 8.14401 5.01451 8.68327 4.05581 9.64197C3.0971 10.6007 2.55784 11.9005 2.55634 13.2563C2.55634 13.407 2.6162 13.5516 2.72276 13.6581C2.82932 13.7647 2.97384 13.8246 3.12454 13.8246C3.27524 13.8246 3.41976 13.7647 3.52632 13.6581C3.63288 13.5516 3.69275 13.407 3.69275 13.2563C3.69275 12.2015 4.1118 11.1898 4.85771 10.4439C5.60362 9.69796 6.6153 9.27891 7.67018 9.27891C8.72507 9.27891 9.73674 9.69796 10.4827 10.4439C11.2286 11.1898 11.6476 12.2015 11.6476 13.2563C11.6476 13.407 11.7075 13.5516 11.814 13.6581C11.9206 13.7647 12.0651 13.8246 12.2158 13.8246C12.3665 13.8246 12.511 13.7647 12.6176 13.6581C12.7242 13.5516 12.784 13.407 12.784 13.2563C12.7825 11.9005 12.2433 10.6007 11.2846 9.64197C10.3259 8.68327 9.026 8.14401 7.67018 8.1425Z" fill="#5F04BA"/>
</g>
<defs>
<clipPath id="clip0_556:915">
<rect width="13.6369" height="13.6369" fill="white" transform="translate(0.851746 0.187622)"/>
</clipPath>
</defs>
</svg>
