<svg width="17" height="17" viewBox="0 0 17 17" fill="none" xmlns="http://www.w3.org/2000/svg">
<g clip-path="url(#clip0_445:8865)">
<path d="M10.563 8.51331C10.563 9.6544 9.63804 10.5793 8.49695 10.5793C7.35586 10.5793 6.43091 9.6544 6.43091 8.51331C6.43091 7.37222 7.35586 6.44727 8.49695 6.44727C9.63804 6.44727 10.563 7.37222 10.563 8.51331Z" fill="#0F011E"/>
<path d="M10.563 2.31604C10.563 3.45713 9.63804 4.38208 8.49695 4.38208C7.35586 4.38208 6.43091 3.45713 6.43091 2.31604C6.43091 1.17495 7.35586 0.25 8.49695 0.25C9.63804 0.25 10.563 1.17495 10.563 2.31604Z" fill="#0F011E"/>
<path d="M10.563 14.7106C10.563 15.8517 9.63804 16.7766 8.49695 16.7766C7.35586 16.7766 6.43091 15.8517 6.43091 14.7106C6.43091 13.5695 7.35586 12.6445 8.49695 12.6445C9.63804 12.6445 10.563 13.5695 10.563 14.7106Z" fill="#0F011E"/>
</g>
<defs>
<clipPath id="clip0_445:8865">
<rect width="16.5283" height="16.5283" fill="white" transform="translate(0.232788 0.25)"/>
</clipPath>
</defs>
</svg>
